<svg xmlns="http://www.w3.org/2000/svg" xmlns:xlink="http://www.w3.org/1999/xlink" xmlns:lucid="lucid" width="1920" height="1429.57"><g transform="translate(-220 -184.00000000000006)" lucid:page-tab-id="xSmnaDVCjY.r"><path d="M0 0h3456v2656H0z" fill="#fff"/><path d="M620 846c0-3.3 2.7-6 6-6h348c3.3 0 6 2.7 6 6v588c0 3.3-2.7 6-6 6H626c-3.3 0-6-2.7-6-6z" fill="#fff" fill-opacity="0"/><path d="M644.64 840h12.43m12.43 0h12.43m12.43 0h12.43m12.4 0h12.44m12.43 0h12.43m12.43 0h12.43m12.43 0h12.4m12.44 0h12.43m12.43 0h12.43m12.43 0h12.43m12.4 0h12.44m12.43 0h12.43m12.43 0h12.43m12.43 0h6.2l3.03.82 2.15 2.15.82 3.03v5.88m0 11.76v11.76m0 11.76v11.76m0 11.76v11.76m0 11.76v11.76m0 11.76v11.76m0 11.76V993m0 11.76v11.76m0 11.76v11.76m0 11.76v11.76m0 11.76v11.76m0 11.76v11.76m0 11.76v11.76m0 11.76v11.76m0 11.76v11.76m0 11.76v11.76m0 11.76v11.76m0 11.76v11.76m0 11.76v11.76m0 11.76v11.76m0 11.76v11.76m0 11.76v11.76m0 11.76v11.76m0 11.76v11.76m0 11.76v11.76m0 11.76v5.88l-.82 3.03-2.15 2.15-3.03.82h-6.2m-12.44 0h-12.43m-12.43 0h-12.43m-12.43 0H893.2m-12.4 0h-12.44m-12.43 0H843.5m-12.43 0h-12.43m-12.43 0h-12.4m-12.44 0h-12.43m-12.43 0h-12.43m-12.43 0H719.2m-12.4 0h-12.44m-12.43 0H669.5m-12.43 0h-12.43m-12.43 0H626l-3.03-.82-2.15-2.15-.82-3.03v-5.88m0-11.76v-11.76m0-11.76v-11.76m0-11.76v-11.76m0-11.76v-11.76m0-11.76v-11.76m0-11.76V1287m0-11.76v-11.76m0-11.76v-11.76m0-11.76v-11.76m0-11.76v-11.76m0-11.76v-11.76m0-11.76v-11.76m0-11.76v-11.76m0-11.76v-11.76m0-11.76v-11.76m0-11.76v-11.76m0-11.76v-11.76m0-11.76v-11.76m0-11.76v-11.76m0-11.76v-11.76m0-11.76V934.2m0-11.76v-11.76m0-11.76v-11.76m0-11.76v-11.76m0-11.76V846l.82-3.03 2.15-2.15L626 840h6.2" stroke="#cd2264" stroke-width="3" fill="none"/><path d="M1280 846c0-3.3 2.7-6 6-6h348c3.3 0 6 2.7 6 6v588c0 3.3-2.7 6-6 6h-348c-3.3 0-6-2.7-6-6z" fill="#fff" fill-opacity="0"/><path d="M1304.64 840h12.43m12.43 0h12.43m12.43 0h12.43m12.4 0h12.44m12.43 0h12.43m12.43 0h12.43m12.43 0h12.4m12.44 0h12.43m12.43 0h12.43m12.43 0h12.43m12.4 0h12.44m12.43 0h12.43m12.43 0h12.43m12.43 0h6.2l3.03.82 2.15 2.15.82 3.03v5.88m0 11.76v11.76m0 11.76v11.76m0 11.76v11.76m0 11.76v11.76m0 11.76v11.76m0 11.76V993m0 11.76v11.76m0 11.76v11.76m0 11.76v11.76m0 11.76v11.76m0 11.76v11.76m0 11.76v11.76m0 11.76v11.76m0 11.76v11.76m0 11.76v11.76m0 11.76v11.76m0 11.76v11.76m0 11.76v11.76m0 11.76v11.76m0 11.76v11.76m0 11.76v11.76m0 11.76v11.76m0 11.76v11.76m0 11.76v11.76m0 11.76v5.88l-.82 3.03-2.15 2.15-3.03.82h-6.2m-12.44 0h-12.43m-12.43 0h-12.43m-12.43 0h-12.43m-12.4 0h-12.44m-12.43 0h-12.43m-12.43 0h-12.43m-12.43 0h-12.4m-12.44 0h-12.43m-12.43 0h-12.43m-12.43 0h-12.43m-12.4 0h-12.44m-12.43 0h-12.43m-12.43 0h-12.43m-12.43 0h-6.2l-3.03-.82-2.15-2.15-.82-3.03v-5.88m0-11.76v-11.76m0-11.76v-11.76m0-11.76v-11.76m0-11.76v-11.76m0-11.76v-11.76m0-11.76V1287m0-11.76v-11.76m0-11.76v-11.76m0-11.76v-11.76m0-11.76v-11.76m0-11.76v-11.76m0-11.76v-11.76m0-11.76v-11.76m0-11.76v-11.76m0-11.76v-11.76m0-11.76v-11.76m0-11.76v-11.76m0-11.76v-11.76m0-11.76v-11.76m0-11.76v-11.76m0-11.76V934.2m0-11.76v-11.76m0-11.76v-11.76m0-11.76v-11.76m0-11.76V846l.82-3.03 2.15-2.15 3.03-.82h6.2" stroke="#d86613" stroke-width="3" fill="none"/><path d="M1021 1064h240v60h-240z" fill="none"/><use xlink:href="#a" transform="matrix(1,0,0,1,1021,1064) translate(46.66666666666667 25.09259259259259)"/><use xlink:href="#b" transform="matrix(1,0,0,1,1021,1064) translate(120 25.09259259259259)"/><use xlink:href="#c" transform="matrix(1,0,0,1,1021,1064) translate(77.22222222222223 51.75925925925925)"/><path d="M740 840H620v120h120V840z" stroke="#fff" stroke-opacity="0" stroke-width="2" fill="#cc2264"/><path d="M705.28 875.2c-13.87-13.85-36.3-13.83-50.17.05-3.94 3.94-6.5 8.06-8.4 13.33l-3-1.06c4.03-11.52 12.2-19.72 23.75-23.74 20.16-7.07 42.22 3.56 49.3 23.74l-3 1.06c-1.9-5.3-4.45-9.45-8.47-13.4zM655.18 924.8c13.9 13.85 36.35 13.85 50.17 0 4.02-4 6.66-8.14 8.48-13.46l3 1.03c-2.05 5.8-4.82 10.32-9.14 14.66-15.15 15.12-39.65 15.12-54.8.03-4.38-4.37-7.23-8.93-9.2-14.8l3-1.03c1.82 5.38 4.46 9.56 8.48 13.57zM707.76 899.94c0-2.6.92-4.8 2.73-6.63 3.65-3.64 9.56-3.64 13.22 0 3.64 3.67 3.64 9.57 0 13.24-3.66 3.64-9.57 3.64-13.23 0-1.82-1.83-2.74-4.02-2.74-6.6zm5.05 4.34c2.44 2.3 6.23 2.3 8.66 0 2.4-2.4 2.37-6.28-.04-8.68-1.18-1.17-2.62-1.77-4.28-1.77-1.7 0-3.14.6-4.33 1.8-2.4 2.4-2.4 6.25 0 8.65zM636.3 893.45c3.66-3.63 9.55-3.63 13.2 0 3.63 3.65 3.63 9.53 0 13.18-3.65 3.63-9.54 3.63-13.2 0-3.62-3.65-3.62-9.53 0-13.18zm2.28 10.9c2.4 2.4 6.26 2.4 8.65 0 2.38-2.37 2.4-6.23 0-8.6v-.03c-2.3-2.46-6.2-2.57-8.65-.26-2.44 2.3-2.55 6.18-.24 8.64l.24.26z" stroke="#fff" stroke-opacity="0" stroke-width="2" fill="#fff"/><path d="M693.32 915.47c-6.58-6.54-19.92-6.54-26.5 0-.28.32-.67.48-1.1.48-.9 0-1.6-.7-1.6-1.6 0-.44.15-.82.47-1.14 3.37-3.76 4.97-8.13 4.78-13.2.2-5.08-1.4-9.5-4.8-13.26-.63-.6-.63-1.62 0-2.23.62-.63 1.64-.63 2.24 0 6.58 6.55 19.92 6.55 26.5 0 .6-.63 1.63-.63 2.23 0 .64.62.64 1.64 0 2.24-3.4 3.77-5.04 8.18-4.85 13.25-.2 5.07 1.44 9.47 4.85 13.2.32.33.48.7.48 1.16 0 .44-.16.83-.48 1.1-.6.65-1.62.65-2.23 0zm-4.15-24.54c-6.1 2.36-12.1 2.36-18.2 0 2.33 6.1 2.33 12.03 0 18.13 6.1-2.36 12.1-2.36 18.2 0-2.33-6.1-2.33-12.04 0-18.13z" stroke="#fff" stroke-opacity="0" stroke-width="2" fill="#fff"/><path d="M660.6 906.54l-5.4-5.45c-.62-.64-.62-1.65 0-2.27l5.42-5.42 2.28 2.27-2.74 2.72h7.23v3.18h-7.24l2.7 2.7zM699.27 906.58l-5.47-5.46c-.6-.63-.6-1.63 0-2.26l5.47-5.45 2.25 2.26-2.72 2.73h7v3.2h-7l2.72 2.72z" stroke="#fff" stroke-opacity="0" stroke-width="2" fill="#fff"/><path d="M462.3 1064h-20.6c-.93 0-1.7-.8-1.7-1.68v-76.64c0-.88.77-1.68 1.7-1.68h20.6c.94 0 1.7.8 1.7 1.68v76.64c0 .88-.76 1.68-1.7 1.68zm-18.9-3.44h17.22v-73.12H443.4zM491.02 989.1h-3.4v-1.7h-1.68V984h3.4c.92 0 1.68.76 1.68 1.7zM491.02 1055.73h-3.4v-6.35h3.4zm0-9.52h-3.4v-6.34h3.4zm0-9.5h-3.4v-6.35h3.4zm0-9.53h-3.4v-6.34h3.4zm0-9.52h-3.4v-6.34h3.4zm0-9.5h-3.4v-6.3h3.4zm0-9.53h-3.4v-6.35h3.4zM489.33 1064h-3.4v-3.4h1.7v-1.7h3.4v3.4c0 .94-.77 1.7-1.7 1.7zM475.52 1060.6h6.94v3.4h-6.94v-3.4zM472.06 1064h-3.4c-.92 0-1.68-.76-1.68-1.7v-3.4h3.4v1.7h1.68zM470.37 1055.73h-3.4v-6.35h3.4zm0-9.52h-3.4v-6.34h3.4zm0-9.5h-3.4v-6.35h3.4zm0-9.53h-3.4v-6.34h3.4zm0-9.52h-3.4v-6.34h3.4zm0-9.5h-3.4v-6.3h3.4zm0-9.53h-3.4v-6.35h3.4zM470.37 989.1h-3.4v-3.4c0-.94.77-1.7 1.7-1.7h3.4v3.4h-1.7zM475.52 984h6.94v3.4h-6.94V984zM518 989.1h-3.4v-1.7h-1.7V984h3.4c.94 0 1.7.76 1.7 1.7zM518 1055.73h-3.4v-6.35h3.4zm0-9.52h-3.4v-6.34h3.4zm0-9.5h-3.4v-6.35h3.4zm0-9.53h-3.4v-6.34h3.4zm0-9.52h-3.4v-6.34h3.4zm0-9.5h-3.4v-6.3h3.4zm0-9.53h-3.4v-6.35h3.4zM516.3 1064h-3.4v-3.4h1.7v-1.7h3.4v3.4c0 .94-.76 1.7-1.7 1.7zM502.55 1060.6h6.94v3.4h-6.95v-3.4zM499.08 1064h-3.4c-.93 0-1.7-.76-1.7-1.7v-3.4h3.4v1.7h1.7zM497.38 1055.73h-3.4v-6.35h3.4zm0-9.52h-3.4v-6.34h3.4zm0-9.5h-3.4v-6.35h3.4zm0-9.53h-3.4v-6.34h3.4zm0-9.52h-3.4v-6.34h3.4zm0-9.5h-3.4v-6.3h3.4zm0-9.53h-3.4v-6.35h3.4zM497.38 989.1h-3.4v-3.4c0-.94.77-1.7 1.7-1.7h3.4v3.4h-1.7zM502.55 984h6.94v3.4h-6.95V984z" stroke="#fff" stroke-opacity="0" fill="#cd2264"/><path d="M441.65 985.68h74.6v76.76h-74.6v-76.76z" stroke="#fff" stroke-opacity="0" stroke-width=".4" fill="#fff" fill-opacity="0"/><path d="M536 984c0 9.94-8.06 18-18 18s-18-8.06-18-18 8.06-18 18-18 18 8.06 18 18z" fill="#78b740"/><path d="M511.37 981.52l-2.74 2.9 6.72 6.32 12.02-11.28-2.74-2.92-9.28 8.72-3.98-3.74z" fill="#fff"/><use xlink:href="#d" transform="matrix(1,0,0,1,410,1073) translate(44.55555555555556 21.759259259259256)"/><use xlink:href="#e" transform="matrix(1,0,0,1,410,1073) translate(26.22222222222223 48.425925925925924)"/><path d="M838.32 1048h-76.64c-.88 0-1.68-.77-1.68-1.68v-44.64c0-.9.8-1.68 1.68-1.68h76.64c.88 0 1.68.77 1.68 1.68v44.64c0 .9-.8 1.68-1.68 1.68zm-74.88-3.4h73.12v-41.2h-73.12z" stroke="#fff" stroke-opacity="0" fill="#cd2264"/><path d="M788.73 1006.47h3.4v35.06h-3.4v-35.06zM798.3 1006.47h3.4v35.06h-3.4v-35.06zM807.88 1006.47h3.4v35.06h-3.4v-35.06zM774.47 1032.28c-.26 0-.48-.05-.72-.15-.62-.28-.98-.86-.98-1.54v-13.2c0-.94.76-1.7 1.7-1.7.42 0 .77.13 1.1.4l7.92 6.58c.7.6.8 1.68.2 2.4-.06.1-.13.15-.2.22l-7.94 6.6c-.32.25-.67.38-1.1.38zm1.7-11.24v5.9l3.56-2.95zM825.53 1032.28c-.42 0-.77-.13-1.1-.4l-7.92-6.58c-.7-.6-.8-1.67-.2-2.4l.2-.22 7.94-6.58c.73-.6 1.8-.52 2.4.2.27.33.4.7.4 1.1v13.2c0 .67-.37 1.25-1 1.53-.23.1-.45.15-.7.15zm-5.26-8.3l3.56 2.96v-5.9z" stroke="#fff" stroke-opacity="0" fill="#cd2264"/><use xlink:href="#f" transform="matrix(1,0,0,1,730,1057) translate(39.44444444444444 21.759259259259256)"/><path d="M318.32 320h-76.64c-.88 0-1.68-.76-1.68-1.7v-5.12c0-18.18 11.92-33.43 29.52-37.7.48-.1.88-.05 1.28.17 5.92 3.2 12.48 3.2 18.4 0 .4-.22.8-.26 1.2-.17 17.68 4.27 29.6 19.52 29.6 37.7v5.13c0 .94-.8 1.7-1.68 1.7zm-74.88-3.43h73.12v-3.4c.08-16.35-10.56-30.07-26.32-34.17-3.36 1.65-6.48 2.4-10.24 2.4s-6.88-.7-10.24-2.4c-15.76 4.1-26.4 17.82-26.32 34.18z" stroke="#fff" stroke-opacity="0" fill="#232f3e"/><path d="M280 281.3c-3.67 0-6.8-.78-10.03-2.56-9.95-5.58-13.5-18.2-7.93-28.17 5.58-9.95 18.17-13.5 28.1-7.93 6.72 3.76 10.56 10.33 10.56 18.05 0 7.76-3.93 14.36-10.74 18.04-3.22 1.73-6.32 2.56-9.95 2.56zm0-37.83c-6.6-.17-12.26 3.18-15.44 8.96-4.5 8.4-1.4 18.8 6.94 23.34 5.4 2.93 11.36 2.93 16.77 0 5.7-3.1 9-8.68 8.96-15.2-.04-9.5-7.76-17.14-17.22-17.1z" stroke="#fff" stroke-opacity="0" fill="#232f3e"/><use xlink:href="#g" transform="matrix(1,0,0,1,210,329) translate(39.44444444444444 21.759259259259256)"/><path d="M1280 840h120v120h-120V840z" stroke="#fff" stroke-opacity="0" stroke-width="2" fill="#d86613"/><path d="M1376.8 940h-19.72c-.64 0-1.15-.32-1.4-.88l-27.92-58.32h-11.78c-.9 0-1.6-.72-1.6-1.6v-17.6c0-.88.7-1.6 1.6-1.6h24.65c.64 0 1.15.32 1.4.88l27.8 58.32h6.97c.9 0 1.6.72 1.6 1.6v17.6c0 .88-.7 1.6-1.6 1.6zm-18.7-3.2h17.1v-14.4h-6.4c-.64 0-1.15-.32-1.4-.88l-27.8-58.32h-22.02v14.4h11.2c.65 0 1.16.32 1.48.88z" stroke="#fff" stroke-opacity="0" stroke-width="2" fill="#fff"/><path d="M1323.96 940h-20.8c-.55 0-1.05-.3-1.37-.73-.33-.54-.33-1.12-.08-1.6l21.78-45.46c.24-.58.8-.92 1.4-.92.65 0 1.18.34 1.46.88l10.4 21.43c.26.43.26.92 0 1.4L1325.42 939c-.2.63-.77 1.02-1.44 1.02zm-18.24-3.22h17.24l10.6-22.36-8.6-17.88z" stroke="#fff" stroke-opacity="0" stroke-width="2" fill="#fff"/><path d="M1483.95 1048.03H1471c-.65 0-1.26-.38-1.52-.98l-18.14-38.9h-7.32c-.9 0-1.7-.75-1.7-1.68v-11.22c0-.92.8-1.68 1.7-1.68h16.15c.7 0 1.26.38 1.52.98l18.1 38.9h4.15c.9 0 1.68.75 1.68 1.73v11.17c0 .92-.78 1.68-1.68 1.68zm-11.9-3.43h10.16v-7.73h-3.5c-.64 0-1.25-.38-1.5-.98l-18.07-38.96h-13.38v7.8h6.67c.7 0 1.3.37 1.56.97z" stroke="#fff" stroke-opacity="0" fill="#d86613"/><path d="M1448.8 1048.03H1435c-.9 0-1.68-.77-1.68-1.7 0-.28.05-.48.17-.72l14.45-30.26c.3-.6.87-.97 1.53-.97.67 0 1.24.33 1.54.94l6.9 14.32c.23.47.23.97 0 1.45l-7.55 16c-.3.6-.87.96-1.54.96zm-11.1-3.4h10.02l6.8-14.27-5.1-10.37z" stroke="#fff" stroke-opacity="0" fill="#d86613"/><path d="M1460 1064c-22.08 0-40-17.92-40-40s17.92-40 40-40 40 17.92 40 40-17.92 40-40 40zm0-76.56c-20.24 0-36.56 16.32-36.56 36.56 0 20.24 16.32 36.56 36.56 36.56 20.24 0 36.56-16.32 36.56-36.56 0-20.24-16.32-36.56-36.56-36.56z" stroke="#fff" stroke-opacity="0" fill="#d86613"/><path d="M1518 1024c0 9.94-8.06 18-18 18s-18-8.06-18-18 8.06-18 18-18 18 8.06 18 18z" fill="#78b740"/><path d="M1493.37 1021.52l-2.74 2.9 6.72 6.32 12.02-11.28-2.74-2.92-9.28 8.72-3.98-3.74z" fill="#fff"/><path d="M587.25 278.5h-38.5V240h38.5zm-35.1-3.4h31.7v-31.7h-31.7zM628.75 278.5h-38.5V240h38.5zm-35.1-3.4h31.7v-31.7h-31.7zM587.25 320h-38.5v-38.5h38.5zm-35.1-3.4h31.7v-31.7h-31.7zM628.75 320h-38.5v-38.5h38.5zm-35.1-3.4h31.7v-31.7h-31.7z" stroke="#fff" stroke-opacity="0" fill="#3b48cc"/><path d="M568 272.14c-7.1 0-12.88-5.78-12.88-12.9 0-7.1 5.77-12.87 12.88-12.87 7.1 0 12.9 5.77 12.9 12.88 0 7.1-5.8 12.9-12.9 12.9zm0-22.35h-.02c-5.24 0-9.46 4.25-9.46 9.48 0 5.25 4.25 9.48 9.5 9.48 5.24-.03 9.46-4.28 9.46-9.5 0-5.24-4.25-9.47-9.48-9.47z" stroke="#fff" stroke-opacity="0" fill="#3b48cc"/><path d="M550.25 241.78h76.77v76.38h-76.77v-76.38z" stroke="#fff" stroke-opacity="0" stroke-width=".4" fill="#fff" fill-opacity="0"/><path d="M646.75 240c0 9.94-8.06 18-18 18s-18-8.06-18-18 8.06-18 18-18 18 8.06 18 18z" fill="#78b740"/><path d="M622.12 237.52l-2.74 2.9 6.72 6.32 12.02-11.28-2.74-2.92-9.28 8.72-3.98-3.74z" fill="#fff"/><use xlink:href="#h" transform="matrix(1,0,0,1,518.7500000000001,329.00000000000006) translate(33.333333333333336 21.759259259259256)"/><path d="M823 220h120v120H823V220z" stroke="#fff" stroke-opacity="0" stroke-width="2" fill="#3b48cc"/><path d="M903.4 284.78l-10.6 10.55c2-.56 3.65-1.2 5.5-2.24 1.1.63 1.68 1.67 1.9 2.87 0 2.96-6.2 6.16-15.4 7.44-3.05.4-5.55.56-8.6.56h-1.58c-12.95-.24-22.42-4.3-22.42-8 .17-1.2.82-2.15 1.9-2.87 5 2.8 13.18 4.47 22.1 4.47h.17l.92-3.2h-1.1c-8.8 0-16.98-1.76-21.28-4.47-1.74-1.12-2.72-2.4-2.72-3.44v-7.44c4.9 3.76 14.64 5.68 24 5.68 1.25 0 2.5 0 3.76-.08l.92-3.2c-1.63.08-3.1.16-4.68.16-13.7 0-24-4.23-24-8 .17-1.27.82-2.23 1.9-2.87 4.42 2.5 11.22 4 18.9 4.4l.1-3.2c-7.56-.4-14.42-2-18.18-4.47-1.74-1.04-2.66-2.3-2.72-3.43v-7.36c4.9 3.76 14.64 5.68 24 5.68h.33l1.74-3.2h-2.07c-13.7 0-24-4.16-24-8 0-3.75 10.3-8 24-8 4.85 0 8.98.5 13.72 1.6h8.8c-4.83-2.95-13.1-4.78-22.52-4.78-13.17 0-27.2 3.9-27.2 11.2V264c.1 1.92.92 3.5 2.44 4.7-1.52 1.3-2.34 2.9-2.45 4.8v12.8c.1 2 .92 3.6 2.44 4.87-1.52 1.2-2.34 2.8-2.45 4.8V309.07c.43 7.05 14.2 10.8 27.2 10.8s26.78-3.75 27.2-10.87V295.88c-.04-1.9-.9-3.6-2.44-4.78 1.53-1.2 2.34-2.88 2.45-4.8zm-3.2 23.98c0 3.76-10.28 8-24 8-13.7 0-24-4.16-24-8v-7.35c4.9 3.68 14.64 5.68 24 5.68s19.1-2 24-5.67z" stroke="#fff" stroke-opacity="0" stroke-width="2" fill="#fff"/><path d="M859 264.03c0 1.1-.9 2-2 2s-2-.9-2-2 .9-2 2-2 2 .9 2 2zM859 286.43c0 1.1-.9 2-2 2s-2-.9-2-2 .9-2 2-2 2 .9 2 2zM859 308.83c0 1.1-.9 2-2 2s-2-.9-2-2 .9-2 2-2 2 .9 2 2zM880.2 302.37c-.3 0-.53-.06-.8-.22-.66-.38-.94-1.14-.74-1.85l8.98-29.95h-9.06c-.88.06-1.6-.65-1.6-1.58 0-.27.04-.54.2-.76l9.58-19.2c.28-.56.8-.88 1.45-.88H909c.9-.06 1.62.65 1.66 1.52.04.22 0 .38-.04.6l-4.13 12.25h8.97c.88.05 1.6.76 1.6 1.63 0 .43-.16.76-.44 1.1l-35.2 36.8c-.32.37-.72.54-1.24.54zm1-35.18h8.6c.53 0 .97.2 1.3.6.27.43.4.92.23 1.4l-7.7 25.6 28.03-29.24h-7.46c-.88 0-1.64-.65-1.68-1.52 0-.22 0-.44.08-.6l4.1-12.3h-17.6z" stroke="#fff" stroke-opacity="0" stroke-width="2" fill="#fff"/><use xlink:href="#i" transform="matrix(1,0,0,1,793,349) translate(53.333333333333336 21.759259259259256)"/><use xlink:href="#j" transform="matrix(1,0,0,1,793,349) translate(41.111111111111114 48.425925925925924)"/><path d="M838.32 1305.57h-76.64c-.88 0-1.68-.77-1.68-1.68v-44.65c0-.9.8-1.68 1.68-1.68h76.64c.88 0 1.68.77 1.68 1.68v44.64c0 .9-.8 1.67-1.68 1.67zm-74.88-3.4h73.12v-41.2h-73.12z" stroke="#fff" stroke-opacity="0" fill="#cd2264"/><path d="M788.73 1264.05h3.4v35.05h-3.4v-35.05zM798.3 1264.05h3.4v35.05h-3.4v-35.05zM807.88 1264.05h3.4v35.05h-3.4v-35.05zM774.47 1289.86c-.26 0-.48-.05-.72-.15-.62-.28-.98-.86-.98-1.54v-13.18c0-.95.76-1.7 1.7-1.7.42 0 .77.12 1.1.4l7.92 6.57c.7.6.8 1.68.2 2.4-.06.1-.13.16-.2.22l-7.94 6.6c-.32.25-.67.4-1.1.4zm1.7-11.25v5.92l3.56-2.96zM825.53 1289.86c-.42 0-.77-.14-1.1-.4l-7.92-6.6c-.7-.58-.8-1.66-.2-2.38l.2-.23 7.94-6.58c.73-.6 1.8-.52 2.4.2.27.33.4.7.4 1.1v13.2c0 .67-.37 1.25-1 1.54-.23.1-.45.16-.7.16zm-5.26-8.3l3.56 2.96v-5.9z" stroke="#fff" stroke-opacity="0" fill="#cd2264"/><use xlink:href="#k" transform="matrix(1,0,0,1,730,1314.572754) translate(2.7777777777777857 21.759259259259256)"/><use xlink:href="#l" transform="matrix(1,0,0,1,730,1314.572754) translate(63.88888888888889 21.759259259259256)"/><use xlink:href="#m" transform="matrix(1,0,0,1,730,1314.572754) translate(39.44444444444444 48.425925925925924)"/><path d="M740 846c0-3.3 2.7-6 6-6h228c3.3 0 6 2.7 6 6v51.33c0 3.32-2.7 6-6 6H746c-3.3 0-6-2.68-6-6z" stroke="#000" stroke-opacity="0" stroke-width="3" fill="#fff" fill-opacity="0"/><use xlink:href="#n" transform="matrix(1,0,0,1,745,845) translate(0 21.759259259259256)"/><use xlink:href="#o" transform="matrix(1,0,0,1,745,845) translate(85.55555555555554 21.759259259259256)"/><use xlink:href="#p" transform="matrix(1,0,0,1,745,845) translate(0 48.425925925925924)"/><use xlink:href="#q" transform="matrix(1,0,0,1,745,845) translate(73.33333333333333 48.425925925925924)"/><path d="M1400 846c0-3.3 2.7-6 6-6h228c3.3 0 6 2.7 6 6v48c0 3.3-2.7 6-6 6h-228c-3.3 0-6-2.7-6-6z" stroke="#000" stroke-opacity="0" stroke-width="3" fill="#fff" fill-opacity="0"/><use xlink:href="#r" transform="matrix(1,0,0,1,1405,845) translate(0 34.25925925925925)"/><use xlink:href="#s" transform="matrix(1,0,0,1,1405,845) translate(48.888888888888886 34.25925925925925)"/><path d="M1483.95 1284.03H1471c-.65 0-1.26-.38-1.52-.98l-18.14-38.9h-7.32c-.9 0-1.7-.75-1.7-1.68v-11.22c0-.92.8-1.68 1.7-1.68h16.15c.7 0 1.26.38 1.52.98l18.1 38.9h4.15c.9 0 1.68.75 1.68 1.73v11.17c0 .92-.78 1.68-1.68 1.68zm-11.9-3.43h10.16v-7.73h-3.5c-.64 0-1.25-.38-1.5-.98l-18.07-38.96h-13.38v7.8h6.67c.7 0 1.3.37 1.56.97z" stroke="#fff" stroke-opacity="0" fill="#d86613"/><path d="M1448.8 1284.03H1435c-.9 0-1.68-.77-1.68-1.7 0-.28.05-.48.17-.72l14.45-30.26c.3-.6.87-.97 1.53-.97.67 0 1.24.33 1.54.94l6.9 14.32c.23.47.23.97 0 1.45l-7.55 16c-.3.6-.87.96-1.54.96zm-11.1-3.4h10.02l6.8-14.27-5.1-10.37z" stroke="#fff" stroke-opacity="0" fill="#d86613"/><path d="M1460 1300c-22.08 0-40-17.92-40-40s17.92-40 40-40 40 17.92 40 40-17.92 40-40 40zm0-76.56c-20.24 0-36.56 16.32-36.56 36.56 0 20.24 16.32 36.56 36.56 36.56 20.24 0 36.56-16.32 36.56-36.56 0-20.24-16.32-36.56-36.56-36.56z" stroke="#fff" stroke-opacity="0" fill="#d86613"/><path d="M1518 1260c0 9.94-8.06 18-18 18s-18-8.06-18-18 8.06-18 18-18 18 8.06 18 18z" fill="#cb2b35"/><path d="M1495.5 1252.66l4.5 4.46 4.5-4.46 2.84 2.85-4.46 4.5 4.46 4.5-2.85 2.84-4.5-4.46-4.5 4.46-2.84-2.85 4.46-4.5-4.46-4.5z" fill="#fff"/><path d="M536.22 257.5H301.14v-2h235.08" fill="#5e5e5e"/><path d="M301.17 257.5h-.9l-.27-2h1.17M551.5 256.5l-14.28 4.62v-9.27z" fill="#5e5e5e"/><path d="M554.72 256.5l-18.5 6v-12.02m2 9.27l10.03-3.26-10.03-3.27" fill="#5e5e5e"/><path d="M629.75 256.13H804.5" stroke="#5e5e5e" stroke-width="2" fill="none"/><path d="M629.78 257.13h-1.03v-2h1.03" fill="#5e5e5e"/><path d="M819.76 256.13l-14.26 4.64v-9.27z" stroke="#5e5e5e" stroke-width="2" fill="#5e5e5e"/><path d="M418.66 301.6H336.4v-2h82.26m129.1 2H448v-2h99.75" fill="#5e5e5e"/><path d="M548.75 301.6h-1.03v-2h1.03M335.4 305.24l-14.25-4.63 14.26-4.63z" fill="#5e5e5e"/><path d="M336.4 306.62l-18.5-6 18.5-6.03m-12.02 6l10.03 3.27v-6.52" fill="#5e5e5e"/><use xlink:href="#t" transform="matrix(1,0,0,1,418.66270311612294,279.2730951599225) translate(0.005000000000000782 17.40740740740741)"/><use xlink:href="#u" transform="matrix(1,0,0,1,418.66270311612294,279.2730951599225) translate(4.89388888888889 38.74074074074075)"/><path d="M822 300.6H647.25" stroke="#5e5e5e" stroke-width="2" fill="none"/><path d="M823 301.6h-1.03v-2H823" fill="#5e5e5e"/><path d="M632 300.6l14.25-4.63v9.27z" stroke="#5e5e5e" stroke-width="2" fill="#5e5e5e"/><path d="M318.32 649.33h-76.64c-.88 0-1.68-.75-1.68-1.7v-5.12c0-18.17 11.92-33.4 29.52-37.7.48-.08.88-.04 1.28.2 5.92 3.2 12.48 3.2 18.4 0 .4-.24.8-.28 1.2-.2 17.68 4.3 29.6 19.53 29.6 37.7v5.14c0 .94-.8 1.7-1.68 1.7zm-74.88-3.43h73.12v-3.4c.08-16.34-10.56-30.07-26.32-34.17-3.36 1.65-6.48 2.4-10.24 2.4s-6.88-.7-10.24-2.4c-15.76 4.1-26.4 17.83-26.32 34.18z" stroke="#fff" stroke-opacity="0" fill="#232f3e"/><path d="M280 610.63c-3.67 0-6.8-.78-10.03-2.56-9.95-5.57-13.5-18.2-7.93-28.16 5.58-9.95 18.17-13.5 28.1-7.92 6.72 3.75 10.56 10.32 10.56 18.04 0 7.77-3.93 14.38-10.74 18.05-3.22 1.74-6.32 2.56-9.95 2.56zm0-37.83c-6.6-.16-12.26 3.18-15.44 8.96-4.5 8.4-1.4 18.8 6.94 23.34 5.4 2.93 11.36 2.93 16.77 0 5.7-3.1 9-8.67 8.96-15.2-.04-9.5-7.76-17.14-17.22-17.1z" stroke="#fff" stroke-opacity="0" fill="#232f3e"/><use xlink:href="#g" transform="matrix(1,0,0,1,210,658.3333333333334) translate(39.44444444444444 21.759259259259256)"/><path d="M585 607.84h-38.5v-38.5H585zm-35.1-3.4h31.7v-31.72h-31.7zM626.5 607.84H588v-38.5h38.5zm-35.1-3.4h31.7v-31.72h-31.7zM585 649.33h-38.5v-38.5H585zm-35.1-3.38h31.7v-31.73h-31.7zM626.5 649.33H588v-38.5h38.5zm-35.1-3.38h31.7v-31.73h-31.7z" stroke="#fff" stroke-opacity="0" fill="#3b48cc"/><path d="M565.75 601.47c-7.1 0-12.88-5.77-12.88-12.9 0-7.1 5.77-12.87 12.88-12.87 7.1 0 12.9 5.77 12.9 12.88 0 7.12-5.8 12.9-12.9 12.9zm0-22.34h-.02c-5.24 0-9.46 4.25-9.46 9.48 0 5.27 4.25 9.5 9.5 9.5 5.24-.03 9.46-4.28 9.46-9.52 0-5.23-4.25-9.45-9.48-9.45z" stroke="#fff" stroke-opacity="0" fill="#3b48cc"/><path d="M548 571.1h76.77v76.4H548v-76.4z" stroke="#fff" stroke-opacity="0" stroke-width=".4" fill="#fff" fill-opacity="0"/><path d="M644.5 569.33c0 9.94-8.06 18-18 18s-18-8.06-18-18 8.06-18 18-18 18 8.06 18 18z" fill="#cb2b35"/><path d="M622 562l4.5 4.45L631 562l2.84 2.84-4.46 4.5 4.46 4.5-2.85 2.84-4.5-4.47-4.5 4.48-2.84-2.85 4.46-4.5-4.46-4.5z" fill="#fff"/><use xlink:href="#h" transform="matrix(1,0,0,1,516.5000000000001,658.3333333333334) translate(33.333333333333336 21.759259259259256)"/><path d="M822 549.33h120v120H822v-120z" stroke="#fff" stroke-opacity="0" stroke-width="2" fill="#3b48cc"/><path d="M902.4 614.1l-10.6 10.56c2-.55 3.65-1.2 5.5-2.23 1.1.64 1.68 1.68 1.9 2.87 0 2.96-6.2 6.16-15.4 7.44-3.05.4-5.55.56-8.6.56h-1.58c-12.95-.24-22.42-4.32-22.42-8 .17-1.2.82-2.15 1.9-2.87 5 2.8 13.18 4.47 22.1 4.47h.17l.92-3.2h-1.1c-8.8 0-16.98-1.75-21.28-4.47-1.74-1.12-2.72-2.4-2.72-3.44v-7.44c4.9 3.76 14.64 5.67 24 5.67 1.25 0 2.5 0 3.76-.08l.92-3.2c-1.63.1-3.1.17-4.68.17-13.7 0-24-4.24-24-8 .17-1.28.82-2.24 1.9-2.88 4.42 2.48 11.22 4 18.9 4.4l.1-3.2c-7.56-.4-14.42-2-18.18-4.47-1.74-1.04-2.66-2.32-2.72-3.44v-7.35c4.9 3.75 14.64 5.67 24 5.67h.33l1.74-3.2h-2.07c-13.7 0-24-4.15-24-8 0-3.75 10.3-7.98 24-7.98 4.85 0 8.98.48 13.72 1.6h8.8c-4.83-2.96-13.1-4.8-22.52-4.8-13.17 0-27.2 3.92-27.2 11.2v12.86c.1 1.92.92 3.52 2.44 4.72-1.52 1.28-2.34 2.87-2.45 4.8v12.78c.1 2 .92 3.6 2.44 4.88-1.52 1.2-2.34 2.8-2.45 4.8V638.4c.43 7.05 14.2 10.8 27.2 10.8s26.78-3.75 27.2-10.87v-13.1c-.04-1.9-.9-3.6-2.44-4.8 1.53-1.2 2.34-2.87 2.45-4.8zm-3.2 24c0 3.75-10.28 8-24 8-13.7 0-24-4.17-24-8v-7.36c4.9 3.68 14.64 5.68 24 5.68s19.1-2 24-5.68z" stroke="#fff" stroke-opacity="0" stroke-width="2" fill="#fff"/><path d="M858 593.37c0 1.1-.9 2-2 2s-2-.9-2-2 .9-2 2-2 2 .9 2 2zM858 615.77c0 1.1-.9 2-2 2s-2-.9-2-2 .9-2 2-2 2 .9 2 2zM858 638.17c0 1.1-.9 2-2 2s-2-.9-2-2 .9-2 2-2 2 .9 2 2zM879.2 631.7c-.3 0-.53-.05-.8-.22-.66-.38-.94-1.14-.74-1.85l8.98-29.95h-9.06c-.88.06-1.6-.65-1.6-1.57 0-.27.04-.54.2-.76l9.58-19.22c.28-.54.8-.87 1.45-.87H908c.9-.05 1.62.65 1.66 1.53.04.2 0 .38-.04.6l-4.13 12.25h8.97c.88.05 1.6.76 1.6 1.63 0 .44-.16.76-.44 1.1l-35.2 36.8c-.32.38-.72.54-1.24.54zm1-35.17h8.6c.53 0 .97.2 1.3.6.27.43.4.92.23 1.4l-7.7 25.6 28.03-29.24h-7.46c-.88 0-1.64-.66-1.68-1.53 0-.22 0-.44.08-.6l4.1-12.3h-17.6z" stroke="#fff" stroke-opacity="0" stroke-width="2" fill="#fff"/><use xlink:href="#i" transform="matrix(1,0,0,1,792,678.3333333333334) translate(53.333333333333336 21.759259259259256)"/><use xlink:href="#j" transform="matrix(1,0,0,1,792,678.3333333333334) translate(41.111111111111114 48.425925925925924)"/><path d="M528 584.17H300.5v-2H528" fill="#5e5e5e"/><path d="M300.5 584.17h-.6l-.84-2h1.45M543.26 583.17L529 587.8v-9.26z" fill="#5e5e5e"/><path d="M546.5 583.17l-18.5 6v-12m2 9.26l10.03-3.26L530 579.9" fill="#5e5e5e"/><path d="M627.5 585.47h176" stroke="#5e5e5e" stroke-width="2" fill="none"/><path d="M627.53 586.47h-1.03v-2h1.03" fill="#5e5e5e"/><path d="M818.76 585.47l-14.26 4.63v-9.27z" stroke="#5e5e5e" stroke-width="2" fill="#5e5e5e"/><path d="M349.1 630.94h-12.7v-2h12.7m196.4 2h-30.18v-2h30.18" fill="#5e5e5e"/><path d="M546.5 630.94h-1.03v-2h1.03M335.4 634.58l-14.26-4.64 14.27-4.64z" fill="#5e5e5e"/><path d="M336.4 635.95l-18.5-6 18.5-6.02m-12.02 6l10.03 3.27v-6.52" fill="#5e5e5e"/><use xlink:href="#v" transform="matrix(1,0,0,1,349.09325867167854,608.6064284932557) translate(68.44944444444441 17.40740740740741)"/><use xlink:href="#w" transform="matrix(1,0,0,1,349.09325867167854,608.6064284932557) translate(0.0049999999999954525 38.74074074074075)"/><path d="M821 629.94H645" stroke="#5e5e5e" stroke-width="2" fill="none"/><path d="M822 630.94h-1.03v-2H822" fill="#5e5e5e"/><path d="M629.74 629.94L644 625.3v9.28z" stroke="#5e5e5e" stroke-width="2" fill="#5e5e5e"/><path d="M1758.5 1022.5H1720V984h38.5zm-35.1-3.4h31.7v-31.7h-31.7zM1800 1022.5h-38.5V984h38.5zm-35.1-3.4h31.7v-31.7h-31.7zM1758.5 1064H1720v-38.5h38.5zm-35.1-3.4h31.7v-31.7h-31.7zM1800 1064h-38.5v-38.5h38.5zm-35.1-3.4h31.7v-31.7h-31.7z" stroke="#fff" stroke-opacity="0" fill="#3b48cc"/><path d="M1739.25 1016.14c-7.1 0-12.88-5.78-12.88-12.9 0-7.1 5.77-12.87 12.88-12.87 7.1 0 12.9 5.77 12.9 12.88 0 7.1-5.8 12.9-12.9 12.9zm0-22.35h-.02c-5.24 0-9.46 4.25-9.46 9.48 0 5.25 4.25 9.48 9.5 9.48 5.24-.03 9.46-4.28 9.46-9.5 0-5.24-4.25-9.47-9.48-9.47z" stroke="#fff" stroke-opacity="0" fill="#3b48cc"/><path d="M1721.5 985.78h76.77v76.38h-76.77v-76.38z" stroke="#fff" stroke-opacity="0" stroke-width=".4" fill="#fff" fill-opacity="0"/><path d="M1818 984c0 9.94-8.06 18-18 18s-18-8.06-18-18 8.06-18 18-18 18 8.06 18 18z" fill="#78b740"/><path d="M1793.37 981.52l-2.74 2.9 6.72 6.32 12.02-11.28-2.74-2.92-9.28 8.72-3.98-3.74z" fill="#fff"/><use xlink:href="#h" transform="matrix(1,0,0,1,1690,1073) translate(33.333333333333336 21.759259259259256)"/><path d="M2000 964h120v120h-120V964z" stroke="#fff" stroke-opacity="0" stroke-width="2" fill="#3b48cc"/><path d="M2080.4 1028.78l-10.6 10.55c2-.56 3.65-1.2 5.5-2.24 1.1.63 1.68 1.67 1.9 2.87 0 2.96-6.2 6.16-15.4 7.44-3.05.4-5.55.56-8.6.56h-1.58c-12.95-.24-22.42-4.3-22.42-8 .17-1.2.82-2.15 1.9-2.87 5 2.8 13.18 4.47 22.1 4.47h.17l.92-3.2h-1.1c-8.8 0-16.98-1.76-21.28-4.47-1.74-1.12-2.72-2.4-2.72-3.44v-7.44c4.9 3.76 14.64 5.68 24 5.68 1.25 0 2.5 0 3.76-.08l.92-3.2c-1.63.08-3.1.16-4.68.16-13.7 0-24-4.23-24-8 .17-1.27.82-2.23 1.9-2.87 4.42 2.5 11.22 4 18.9 4.4l.1-3.2c-7.56-.4-14.42-2-18.18-4.47-1.74-1.04-2.66-2.3-2.72-3.43v-7.36c4.9 3.76 14.64 5.68 24 5.68h.33l1.74-3.2h-2.07c-13.7 0-24-4.16-24-8 0-3.75 10.3-8 24-8 4.85 0 8.98.5 13.72 1.6h8.8c-4.83-2.95-13.1-4.78-22.52-4.78-13.17 0-27.2 3.9-27.2 11.2V1008c.1 1.92.92 3.5 2.44 4.7-1.52 1.3-2.34 2.9-2.45 4.8v12.8c.1 2 .92 3.6 2.44 4.87-1.52 1.2-2.34 2.8-2.45 4.8V1053.07c.43 7.05 14.2 10.8 27.2 10.8s26.78-3.75 27.2-10.87V1039.88c-.04-1.9-.9-3.6-2.44-4.78 1.53-1.2 2.34-2.88 2.45-4.8zm-3.2 23.98c0 3.76-10.28 8-24 8-13.7 0-24-4.16-24-8v-7.35c4.9 3.68 14.64 5.68 24 5.68s19.1-2 24-5.67z" stroke="#fff" stroke-opacity="0" stroke-width="2" fill="#fff"/><path d="M2036 1008.03c0 1.1-.9 2-2 2s-2-.9-2-2 .9-2 2-2 2 .9 2 2zM2036 1030.43c0 1.1-.9 2-2 2s-2-.9-2-2 .9-2 2-2 2 .9 2 2zM2036 1052.83c0 1.1-.9 2-2 2s-2-.9-2-2 .9-2 2-2 2 .9 2 2zM2057.2 1046.37c-.3 0-.53-.06-.8-.22-.66-.38-.94-1.14-.74-1.85l8.98-29.95h-9.06c-.88.06-1.6-.65-1.6-1.58 0-.27.04-.54.2-.76l9.58-19.2c.28-.56.8-.88 1.45-.88h20.8c.9-.06 1.62.65 1.66 1.52.04.22 0 .38-.04.6l-4.13 12.25h8.97c.88.05 1.6.76 1.6 1.63 0 .43-.16.76-.44 1.1l-35.2 36.8c-.32.37-.72.54-1.24.54zm1-35.18h8.6c.53 0 .97.2 1.3.6.27.43.4.92.23 1.4l-7.7 25.6 28.03-29.24h-7.46c-.88 0-1.64-.65-1.68-1.52 0-.22 0-.44.08-.6l4.1-12.3h-17.6z" stroke="#fff" stroke-opacity="0" stroke-width="2" fill="#fff"/><use xlink:href="#i" transform="matrix(1,0,0,1,1970,1093) translate(53.333333333333336 21.759259259259256)"/><use xlink:href="#j" transform="matrix(1,0,0,1,1970,1093) translate(41.111111111111114 48.425925925925924)"/><path d="M1801 1000.13h180.5" stroke="#5e5e5e" stroke-width="2" fill="none"/><path d="M1801.03 1001.13H1800v-2h1.03" fill="#5e5e5e"/><path d="M1996.76 1000.13l-14.26 4.64v-9.27z" stroke="#5e5e5e" stroke-width="2" fill="#5e5e5e"/><path d="M1999 1044.6h-180.5" stroke="#5e5e5e" stroke-width="2" fill="none"/><path d="M2000 1045.6h-1.03v-2h1.03" fill="#5e5e5e"/><path d="M1803.24 1044.6l14.26-4.63v9.27z" stroke="#5e5e5e" stroke-width="2" fill="#5e5e5e"/><path d="M1758.5 1258.5H1720V1220h38.5zm-35.1-3.4h31.7v-31.7h-31.7zM1800 1258.5h-38.5V1220h38.5zm-35.1-3.4h31.7v-31.7h-31.7zM1758.5 1300H1720v-38.5h38.5zm-35.1-3.4h31.7v-31.7h-31.7zM1800 1300h-38.5v-38.5h38.5zm-35.1-3.4h31.7v-31.7h-31.7z" stroke="#fff" stroke-opacity="0" fill="#3b48cc"/><path d="M1739.25 1252.14c-7.1 0-12.88-5.78-12.88-12.9 0-7.1 5.77-12.87 12.88-12.87 7.1 0 12.9 5.77 12.9 12.88 0 7.1-5.8 12.9-12.9 12.9zm0-22.35h-.02c-5.24 0-9.46 4.25-9.46 9.48 0 5.25 4.25 9.48 9.5 9.48 5.24-.03 9.46-4.28 9.46-9.5 0-5.24-4.25-9.47-9.48-9.47z" stroke="#fff" stroke-opacity="0" fill="#3b48cc"/><path d="M1721.5 1221.78h76.77v76.38h-76.77v-76.38z" stroke="#fff" stroke-opacity="0" stroke-width=".4" fill="#fff" fill-opacity="0"/><path d="M1818 1220c0 9.94-8.06 18-18 18s-18-8.06-18-18 8.06-18 18-18 18 8.06 18 18z" fill="#cb2b35"/><path d="M1795.5 1212.66l4.5 4.46 4.5-4.46 2.84 2.85-4.46 4.5 4.46 4.5-2.85 2.84-4.5-4.46-4.5 4.46-2.84-2.85 4.46-4.5-4.46-4.5z" fill="#fff"/><use xlink:href="#h" transform="matrix(1,0,0,1,1690,1309) translate(33.333333333333336 21.759259259259256)"/><path d="M2000 1200h120v120h-120v-120z" stroke="#fff" stroke-opacity="0" stroke-width="2" fill="#3b48cc"/><path d="M2080.4 1264.78l-10.6 10.55c2-.56 3.65-1.2 5.5-2.24 1.1.63 1.68 1.67 1.9 2.87 0 2.96-6.2 6.16-15.4 7.44-3.05.4-5.55.56-8.6.56h-1.58c-12.95-.24-22.42-4.3-22.42-8 .17-1.2.82-2.15 1.9-2.87 5 2.8 13.18 4.47 22.1 4.47h.17l.92-3.2h-1.1c-8.8 0-16.98-1.76-21.28-4.47-1.74-1.12-2.72-2.4-2.72-3.44v-7.44c4.9 3.76 14.64 5.68 24 5.68 1.25 0 2.5 0 3.76-.08l.92-3.2c-1.63.08-3.1.16-4.68.16-13.7 0-24-4.23-24-8 .17-1.27.82-2.23 1.9-2.87 4.42 2.5 11.22 4 18.9 4.4l.1-3.2c-7.56-.4-14.42-2-18.18-4.47-1.74-1.04-2.66-2.3-2.72-3.43v-7.36c4.9 3.76 14.64 5.68 24 5.68h.33l1.74-3.2h-2.07c-13.7 0-24-4.16-24-8 0-3.75 10.3-8 24-8 4.85 0 8.98.5 13.72 1.6h8.8c-4.83-2.95-13.1-4.78-22.52-4.78-13.17 0-27.2 3.9-27.2 11.2V1244c.1 1.92.92 3.5 2.44 4.7-1.52 1.3-2.34 2.9-2.45 4.8v12.8c.1 2 .92 3.6 2.44 4.87-1.52 1.2-2.34 2.8-2.45 4.8V1289.07c.43 7.05 14.2 10.8 27.2 10.8s26.78-3.75 27.2-10.87V1275.88c-.04-1.9-.9-3.6-2.44-4.78 1.53-1.2 2.34-2.88 2.45-4.8zm-3.2 23.98c0 3.76-10.28 8-24 8-13.7 0-24-4.16-24-8v-7.35c4.9 3.68 14.64 5.68 24 5.68s19.1-2 24-5.67z" stroke="#fff" stroke-opacity="0" stroke-width="2" fill="#fff"/><path d="M2036 1244.03c0 1.1-.9 2-2 2s-2-.9-2-2 .9-2 2-2 2 .9 2 2zM2036 1266.43c0 1.1-.9 2-2 2s-2-.9-2-2 .9-2 2-2 2 .9 2 2zM2036 1288.83c0 1.1-.9 2-2 2s-2-.9-2-2 .9-2 2-2 2 .9 2 2zM2057.2 1282.37c-.3 0-.53-.06-.8-.22-.66-.38-.94-1.14-.74-1.85l8.98-29.95h-9.06c-.88.06-1.6-.65-1.6-1.58 0-.27.04-.54.2-.76l9.58-19.2c.28-.56.8-.88 1.45-.88h20.8c.9-.06 1.62.65 1.66 1.52.04.22 0 .38-.04.6l-4.13 12.25h8.97c.88.05 1.6.76 1.6 1.63 0 .43-.16.76-.44 1.1l-35.2 36.8c-.32.37-.72.54-1.24.54zm1-35.18h8.6c.53 0 .97.2 1.3.6.27.43.4.92.23 1.4l-7.7 25.6 28.03-29.24h-7.46c-.88 0-1.64-.65-1.68-1.52 0-.22 0-.44.08-.6l4.1-12.3h-17.6z" stroke="#fff" stroke-opacity="0" stroke-width="2" fill="#fff"/><use xlink:href="#i" transform="matrix(1,0,0,1,1970,1329) translate(53.333333333333336 21.759259259259256)"/><use xlink:href="#j" transform="matrix(1,0,0,1,1970,1329) translate(41.111111111111114 48.425925925925924)"/><path d="M1801 1236.13h180.5" stroke="#5e5e5e" stroke-width="2" fill="none"/><path d="M1801.03 1237.13H1800v-2h1.03" fill="#5e5e5e"/><path d="M1996.76 1236.13l-14.26 4.64v-9.27z" stroke="#5e5e5e" stroke-width="2" fill="#5e5e5e"/><path d="M1999 1280.6h-180.5" stroke="#5e5e5e" stroke-width="2" fill="none"/><path d="M2000 1281.6h-1.03v-2h1.03" fill="#5e5e5e"/><path d="M1803.24 1280.6l14.26-4.63v9.27z" stroke="#5e5e5e" stroke-width="2" fill="#5e5e5e"/><path d="M318.32 1064h-76.64c-.88 0-1.68-.76-1.68-1.7v-5.12c0-18.18 11.92-33.43 29.52-37.7.48-.1.88-.05 1.28.17 5.92 3.2 12.48 3.2 18.4 0 .4-.22.8-.26 1.2-.17 17.68 4.27 29.6 19.52 29.6 37.7v5.13c0 .94-.8 1.7-1.68 1.7zm-74.88-3.43h73.12v-3.4c.08-16.35-10.56-30.07-26.32-34.17-3.36 1.65-6.48 2.4-10.24 2.4s-6.88-.7-10.24-2.4c-15.76 4.1-26.4 17.82-26.32 34.18z" stroke="#fff" stroke-opacity="0" fill="#232f3e"/><path d="M280 1025.3c-3.67 0-6.8-.78-10.03-2.56-9.95-5.58-13.5-18.2-7.93-28.17 5.58-9.95 18.17-13.5 28.1-7.93 6.72 3.76 10.56 10.33 10.56 18.05 0 7.76-3.93 14.36-10.74 18.04-3.22 1.73-6.32 2.56-9.95 2.56zm0-37.83c-6.6-.17-12.26 3.18-15.44 8.96-4.5 8.4-1.4 18.8 6.94 23.34 5.4 2.93 11.36 2.93 16.77 0 5.7-3.1 9-8.68 8.96-15.2-.04-9.5-7.76-17.14-17.22-17.1z" stroke="#fff" stroke-opacity="0" fill="#232f3e"/><use xlink:href="#g" transform="matrix(1,0,0,1,210,1073) translate(39.44444444444444 21.759259259259256)"/><path d="M421.5 1001.44H301.13v-2H421.5" fill="#5e5e5e"/><path d="M301.16 1001.44h-.88l-.3-2h1.18M436.76 1000.44l-14.26 4.63v-9.27z" fill="#5e5e5e"/><path d="M440 1000.44l-18.5 6v-12.02m2 9.28l10.03-3.26-10.03-3.26M363.23 1040.52H334.3v-2h28.93m75.77 2h-46.44v-2H439" fill="#5e5e5e"/><path d="M440 1040.52h-1.03v-2H440M333.3 1044.15l-14.27-4.63 14.26-4.64z" fill="#5e5e5e"/><path d="M334.3 1045.53l-18.5-6 18.5-6.02m-12.04 6.02l10.03 3.26v-6.52" fill="#5e5e5e"/><use xlink:href="#x" transform="matrix(1,0,0,1,363.22973128168377,1018.1834121555299) translate(0 17.40740740740741)"/><use xlink:href="#y" transform="matrix(1,0,0,1,363.22973128168377,1018.1834121555299) translate(0 38.74074074074075)"/><path d="M519 1024h222.5" stroke="#5e5e5e" stroke-width="2" fill="none"/><path d="M519.03 1025H518v-2h1.03" fill="#5e5e5e"/><path d="M756.76 1024l-14.26 4.64v-9.28z" stroke="#5e5e5e" stroke-width="2" fill="#5e5e5e"/><path d="M1182 1024h219.5" stroke="#5e5e5e" stroke-width="2" fill="none"/><path d="M1182.03 1025h-1.1l.07-1-.04-1h1.07" fill="#5e5e5e"/><path d="M1416.76 1024l-14.26 4.64v-9.28z" stroke="#5e5e5e" stroke-width="2" fill="#5e5e5e"/><path d="M1701.5 997.17h-211.88v-2h211.88" fill="#5e5e5e"/><path d="M1489.64 997.17l-1.97-2h1.97M1716.76 996.17l-14.26 4.64v-9.27z" fill="#5e5e5e"/><path d="M1720 996.17l-18.5 6v-12m2 9.26l10.03-3.26-10.03-3.26M1701.5 1236.43h-209.02v-2h209.02" fill="#5e5e5e"/><path d="M1492.5 1236.43h-.28l-1.47-2h1.76M1716.76 1235.43l-14.26 4.64v-9.27z" fill="#5e5e5e"/><path d="M1720 1235.43l-18.5 6v-12m2 9.26l10.03-3.27-10.03-3.26" fill="#5e5e5e"/><path d="M1182 1024h112.5c3.3 0 6 2.7 6 6v224c0 3.3 2.7 6 6 6h95" stroke="#5e5e5e" stroke-width="2" fill="none"/><path d="M1182.03 1025h-1.1l.07-1-.04-1h1.07" fill="#5e5e5e"/><path d="M1416.76 1260l-14.26 4.64v-9.28z" stroke="#5e5e5e" stroke-width="2" fill="#5e5e5e"/><path d="M1141 1064c-22.08 0-40-17.92-40-40s17.92-40 40-40 40 17.92 40 40-17.92 40-40 40zm0-76.56c-20.24 0-36.56 16.32-36.56 36.56 0 20.24 16.32 36.56 36.56 36.56 20.24 0 36.56-16.32 36.56-36.56 0-20.24-16.32-36.56-36.56-36.56z" stroke="#000" stroke-opacity="0" fill="#d86613"/><path d="M1129.72 1006.48h3.44v35.04h-3.44v-35.04zm9.6 0h3.36v35.04h-3.36v-35.04zm9.6 0h3.36v35.04h-3.36v-35.04zm-33.44 25.76c-.24 0-.48 0-.72-.08-.64-.32-.96-.88-.96-1.6v-13.2c0-.88.72-1.68 1.68-1.68.4 0 .72.16 1.12.4l7.92 6.56c.64.64.8 1.68.16 2.4-.08.16-.08.16-.16.24l-8 6.64c-.32.24-.64.32-1.04.32zm1.68-11.2v5.92l3.6-2.96-3.6-2.96zm49.36 11.2c-.4 0-.72-.08-1.12-.32l-7.92-6.64c-.64-.56-.8-1.68-.16-2.4l.16-.16 8-6.64c.72-.56 1.76-.48 2.4.24.24.32.4.72.4 1.12v13.2c0 .64-.4 1.2-1.04 1.52-.24.08-.48.08-.72.08zm-5.28-8.24l3.6 2.96v-5.92l-3.6 2.96z" stroke="#000" stroke-opacity="0" fill="#d86613"/><path d="M1591.56 1048.37h-80.6v-2h80.6m127.44 2h-98.1v-2h98.1" fill="#5e5e5e"/><path d="M1720 1048.37h-1.03v-2h1.03M1509.96 1052l-14.26-4.63 14.26-4.63z" fill="#5e5e5e"/><path d="M1510.96 1053.38l-18.5-6 18.5-6.02m-12.03 6l10.03 3.27v-6.52" fill="#5e5e5e"/><use xlink:href="#z" transform="matrix(1,0,0,1,1591.5630018333334,1026.0373376666666) translate(0.005000000000000782 17.40740740740741)"/><use xlink:href="#A" transform="matrix(1,0,0,1,1591.5630018333334,1026.0373376666666) translate(4.89388888888889 38.74074074074075)"/><path d="M1534.64 1285.47h-24.58v-2h24.58m184.36 2h-18.14v-2H1719" fill="#5e5e5e"/><path d="M1720 1285.47h-1.03v-2h1.03M1509.06 1289.1l-14.26-4.63 14.26-4.64z" fill="#5e5e5e"/><path d="M1510.06 1290.48l-18.5-6 18.5-6.03m-12.03 6.02l10.03 3.26v-6.52" fill="#5e5e5e"/><use xlink:href="#B" transform="matrix(1,0,0,1,1534.6424757570162,1263.1329126193843) translate(68.44944444444441 17.40740740740741)"/><use xlink:href="#C" transform="matrix(1,0,0,1,1534.6424757570162,1263.1329126193843) translate(0.0049999999999954525 38.74074074074075)"/><path d="M801 1239.07h-2v-3.96h2m0-7.9h-2v-7.93h2m0-7.92h-2v-7.92h2m0-7.92h-2v-7.9h2m0-7.93h-2v-7.92h2m0-7.92h-2v-.38h2m0-21.33h-2v-2.04h2m0-7.92h-2v-7.92h2m0-7.92h-2v-7.92h2m0-7.92h-2v-7.92h2m0-7.92h-2v-7.92h2m0-7.92h-2v-7.92h2m0-7.92h-2V1049h2" fill="#5e5e5e"/><path d="M801 1049.03h-2V1048h2M800 1254.34l-4.64-14.27h9.28z" fill="#5e5e5e"/><path d="M800 1257.57l-6-18.5h12m-9.26 2l3.26 10.03 3.26-10.03" fill="#5e5e5e"/><use xlink:href="#D" transform="matrix(1,0,0,1,692.4444444444445,1142.1197103333332) translate(0 17.40740740740741)"/><use xlink:href="#E" transform="matrix(1,0,0,1,692.4444444444445,1142.1197103333332) translate(136.88888888888886 17.40740740740741)"/><path d="M1060 1263.57c0-3.3 2.7-6 6-6h148c3.3 0 6 2.7 6 6v78c0 3.32-2.7 6-6 6h-148c-3.3 0-6-2.68-6-6z" stroke="#5e5e5e" stroke-width="3" fill="#fff"/><path d="M1238 1257.57c0 9.94-8.06 18-18 18s-18-8.06-18-18 8.06-18 18-18 18 8.06 18 18z" fill="#32a5df"/><path d="M1222 1263.57v-9h-6v4h2v5h-2v3h8v-3h-2zm-2.88-15h1.76c.62 0 1.12.5 1.12 1.13v1.75c0 .62-.5 1.12-1.13 1.12h-1.74c-.63 0-1.13-.5-1.13-1.12v-1.75c0-.62.5-1.13 1.13-1.13z" fill="#fff"/><use xlink:href="#F" transform="matrix(1,0,0,1,1065,1262.572754) translate(32.22222222222223 34.25925925925925)"/><use xlink:href="#G" transform="matrix(1,0,0,1,1065,1262.572754) translate(13.888888888888886 60.925925925925924)"/><use xlink:href="#H" transform="matrix(1,0,0,1,1065,1262.572754) translate(87.22222222222221 60.925925925925924)"/><use xlink:href="#I" transform="matrix(1,0,0,1,1065,1262.572754) translate(123.88888888888889 60.925925925925924)"/><path d="M960 1473.57c0-3.3 2.7-6 6-6h148c3.3 0 6 2.7 6 6v78c0 3.32-2.7 6-6 6H966c-3.3 0-6-2.68-6-6z" stroke="#5e5e5e" stroke-width="3" fill="#fff"/><path d="M1138 1467.57c0 9.94-8.06 18-18 18s-18-8.06-18-18 8.06-18 18-18 18 8.06 18 18z" fill="#78b740"/><path d="M1113.37 1465.1l-2.74 2.9 6.72 6.32 12.02-11.3-2.74-2.9-9.28 8.7-3.98-3.73z" fill="#fff"/><use xlink:href="#J" transform="matrix(1,0,0,1,965,1472.572754) translate(13.8888888888889 21.759259259259256)"/><use xlink:href="#K" transform="matrix(1,0,0,1,965,1472.572754) translate(99.44444444444444 21.759259259259256)"/><use xlink:href="#L" transform="matrix(1,0,0,1,965,1472.572754) translate(32.22222222222223 48.425925925925924)"/><use xlink:href="#M" transform="matrix(1,0,0,1,965,1472.572754) translate(68.88888888888889 48.425925925925924)"/><use xlink:href="#N" transform="matrix(1,0,0,1,965,1472.572754) translate(32.22222222222223 75.09259259259258)"/><path d="M1153.5 1473.57c0-3.3 2.7-6 6-6h148c3.3 0 6 2.7 6 6v78c0 3.32-2.7 6-6 6h-148c-3.3 0-6-2.68-6-6z" stroke="#5e5e5e" stroke-width="3" fill="#fff"/><path d="M1331.5 1467.57c0 9.94-8.06 18-18 18s-18-8.06-18-18 8.06-18 18-18 18 8.06 18 18z" fill="#cb2b35"/><path d="M1309 1460.23l4.5 4.46 4.5-4.47 2.84 2.85-4.46 4.5 4.46 4.5-2.85 2.84-4.5-4.47-4.5 4.47-2.84-2.85 4.46-4.5-4.46-4.5z" fill="#fff"/><g><use xlink:href="#O" transform="matrix(1,0,0,1,1158.5000000000002,1472.572754) translate(13.8888888888889 21.759259259259256)"/><use xlink:href="#K" transform="matrix(1,0,0,1,1158.5000000000002,1472.572754) translate(99.44444444444444 21.759259259259256)"/><use xlink:href="#P" transform="matrix(1,0,0,1,1158.5000000000002,1472.572754) translate(7.7777777777777715 48.425925925925924)"/><use xlink:href="#Q" transform="matrix(1,0,0,1,1158.5000000000002,1472.572754) translate(44.444444444444436 48.425925925925924)"/><use xlink:href="#R" transform="matrix(1,0,0,1,1158.5000000000002,1472.572754) translate(117.77777777777777 48.425925925925924)"/><use xlink:href="#S" transform="matrix(1,0,0,1,1158.5000000000002,1472.572754) translate(13.888888888888893 75.09259259259258)"/><use xlink:href="#T" transform="matrix(1,0,0,1,1158.5000000000002,1472.572754) translate(75 75.09259259259258)"/></g><path d="M1140 1350.07v51.5c0 3.32-2.7 6-6 6h-88c-3.3 0-6 2.7-6 6v34" stroke="#5e5e5e" stroke-width="2" fill="none"/><path d="M1141 1350.1h-2v-1.03h2" fill="#5e5e5e"/><path d="M1040 1462.84l-4.64-14.27h9.28z" stroke="#5e5e5e" stroke-width="2" fill="#5e5e5e"/><path d="M1140 1350.07v51.5c0 3.32 2.7 6 6 6h81.5c3.3 0 6 2.7 6 6v34" stroke="#5e5e5e" stroke-width="2" fill="none"/><path d="M1141 1350.1h-2v-1.03h2" fill="#5e5e5e"/><path d="M1233.5 1462.84l-4.64-14.27h9.28z" stroke="#5e5e5e" stroke-width="2" fill="#5e5e5e"/><path d="M980.02 1056.5l.06 2.85.07 1.06m.77 7.8l.26 1.75.63 3.3.63 2.62m2.27 7.48l.87 2.34 1.27 3 .87 1.87m3.7 6.9l.2.32 1.96 3.08 2.15 3.1m4.86 6.14l.45.55 3.2 3.54 1.65 1.68m5.62 5.45l.77.72 5.13 4.42m6.13 4.86l.6.5 5.7 4.1m6.44 4.47l6.53 4.3m6.53 4.3l1.3.87 5.27 3.4m6.58 4.23l6.58 4.23m6.58 4.24l6.58 4.23m6.5 4.34l6.34 4.6m6.17 4.8l1.3 1.05 4.66 4m5.7 5.37l2.93 3 2.42 2.7m4.95 6.04l1.08 1.43 2.2 3.16 1.17 1.84m3.86 6.8l.27.5 1.4 3.02 1.28 3.02.23.6m2.44 7.44l.34 1.2.6 2.6" stroke="#5e5e5e" stroke-width="2" fill="none"/><path d="M981.02 1056.5l-2 .05-.02-1.05h2" fill="#5e5e5e"/><path d="M1139.66 1252.85l-6.12-13.7 9.22-.97z" stroke="#5e5e5e" stroke-width="2" fill="#5e5e5e"/><path d="M920 1000c0-3.3 2.7-6 6-6h108c3.3 0 6 2.7 6 6v48c0 3.3-2.7 6-6 6H926c-3.3 0-6-2.7-6-6z" stroke="#5e5e5e" stroke-width="3" fill="#fff"/><g><use xlink:href="#U" transform="matrix(1,0,0,1,932,1006) translate(5.2222222222222285 26.259259259259256)"/></g><path d="M1100 1024h-5m-10 0h-10m-10 0h-5" stroke="#5e5e5e" stroke-width="2" fill="none"/><path d="M1101 1024l.04 1h-1.07v-2h1.1" fill="#5e5e5e"/><path d="M1044.74 1024l14.26-4.64v9.28z" stroke="#5e5e5e" stroke-width="2" fill="#5e5e5e"/><path d="M917.5 1024h-3.7m-7.36 0h-7.38m-7.37 0h-7.4m-7.36 0h-7.38m-7.37 0h-3.7" stroke="#5e5e5e" stroke-width="2" fill="none"/><path d="M918.5 1025h-1.03v-2h1.03" fill="#5e5e5e"/><path d="M843.24 1024l14.26-4.64v9.28z" stroke="#5e5e5e" stroke-width="2" fill="#5e5e5e"/><path d="M1340 1111c0-3.3 2.7-6 6-6h228c3.3 0 6 2.7 6 6v62c0 3.3-2.7 6-6 6h-228c-3.3 0-6-2.7-6-6z" stroke="#000" stroke-opacity="0" stroke-width="3" fill="#fff" fill-opacity="0"/><g><use xlink:href="#V" transform="matrix(1,0,0,1,1345,1110) translate(85.66666666666666 52.22222222222222)"/></g><defs><path fill="#333" d="M195-85v-283h290v-85H195v-242h350v-85H110V0h435v-85H195" id="W"/><path fill="#333" d="M492-570h90L364 0h-85L77-570h90l156 437" id="X"/><path fill="#333" d="M334-586c179-3 258 134 237 340l-406 2c0 107 70 182 171 182 51 0 105-19 169-81l51 62c-56 61-134 96-217 96C171 12 69-109 80-295c11-184 91-291 254-291zm148 265c6-122-46-190-157-190-110 0-154 73-159 190h316" id="Y"/><path fill="#333" d="M567-297c0 99-7 207 6 297h-97v-318c0-101-58-183-159-183-69 0-105 39-130 89V0h-85v-570h107c-9 13-22 43-22 70 24-54 102-85 172-86 148 0 208 147 208 289" id="Z"/><path fill="#333" d="M508-152l76 34C541-24 464 15 390 15c-101 0-198-76-198-210v-298h-92v-77h92v-216l85 6v210h243v77H277v298c3 156 182 164 231 43" id="aa"/><g id="a"><use transform="matrix(0.018518518518518517,0,0,0.018518518518518517,0,0)" xlink:href="#W"/><use transform="matrix(0.018518518518518517,0,0,0.018518518518518517,12.222222222222221,0)" xlink:href="#X"/><use transform="matrix(0.018518518518518517,0,0,0.018518518518518517,24.444444444444443,0)" xlink:href="#Y"/><use transform="matrix(0.018518518518518517,0,0,0.018518518518518517,36.666666666666664,0)" xlink:href="#Z"/><use transform="matrix(0.018518518518518517,0,0,0.018518518518518517,48.888888888888886,0)" xlink:href="#aa"/></g><path fill="#333" d="M355-435c150 29 222 85 222 223C577-59 470 15 305 15c-98 0-193-42-223-99l59-55c36 52 94 78 174 78 110 0 179-40 181-143 2-99-54-131-151-148C190-379 87-460 87-584c0-123 98-211 236-211 97 0 183 39 225 102l-56 53c-52-58-91-77-158-77-106 0-167 47-167 129 0 77 62 128 188 153" id="ab"/><path fill="#333" d="M329 15C170 15 67-105 67-291c0-182 101-295 262-295 160 0 264 116 264 295 0 184-105 306-264 306zm0-73c105 0 167-86 167-233 0-146-62-226-167-225-101 1-162 82-162 225 0 145 61 233 162 233" id="ac"/><path fill="#333" d="M558 0h-91v-82c-31 59-99 97-171 97C174 15 86-113 86-264v-307h91v328c0 96 65 183 159 183 62 0 89-38 131-107v-403h85v504c0 22 0 46 6 66" id="ad"/><path fill="#333" d="M562-476c-98-53-205-7-225 79v327h169c0 24 0 49 6 70H78v-70h177v-430l-117-7v-63h210c-7 11-16 54-16 67 40-76 130-83 174-83 22 0 44 2 109 27" id="ae"/><path fill="#333" d="M481-179l98 14C557-55 460 14 329 14 165 14 72-89 72-267c0-181 84-319 257-319 110 0 210 63 240 157l-94 27c-20-66-80-104-146-104-112 0-162 91-162 239 0 133 56 202 162 202 83 0 138-39 152-114" id="af"/><g id="b"><use transform="matrix(0.018518518518518517,0,0,0.018518518518518517,0,0)" xlink:href="#ab"/><use transform="matrix(0.018518518518518517,0,0,0.018518518518518517,12.222222222222221,0)" xlink:href="#ac"/><use transform="matrix(0.018518518518518517,0,0,0.018518518518518517,24.444444444444443,0)" xlink:href="#ad"/><use transform="matrix(0.018518518518518517,0,0,0.018518518518518517,36.666666666666664,0)" xlink:href="#ae"/><use transform="matrix(0.018518518518518517,0,0,0.018518518518518517,48.888888888888886,0)" xlink:href="#af"/><use transform="matrix(0.018518518518518517,0,0,0.018518518518518517,61.11111111111111,0)" xlink:href="#Y"/></g><path fill="#333" d="M517-621V0h85v-780h-94c-50 136-138 332-178 408-42-76-133-272-185-408H58V0h85v-621c48 132 118 274 148 345h86c38-80 94-212 140-345" id="ag"/><path fill="#333" d="M310-586c151 0 259 108 259 260V0H462c9-13 22-44 22-70-29 50-98 83-178 84C180 14 80-42 80-148c0-114 115-173 344-173 19 0 39 1 60 2 3-113-68-190-171-190-51 0-105 19-169 81l-51-62c56-61 134-96 217-96zM291-58c68 0 147-31 193-95v-92c-22-1-44-1-64-1-173 0-253 28-253 98 0 59 56 90 124 90" id="ah"/><path fill="#333" d="M336-586c160 0 253 105 253 285 0 190-105 315-263 315-63 0-119-20-161-57v243l-85 6v-776h107c-9 13-23 45-22 72 43-61 95-88 171-88zM326-67c104 0 178-97 178-234 0-127-66-210-168-210-72 0-134 41-171 113v243c26 61 76 88 161 88" id="ai"/><path fill="#333" d="M322-671c-41 0-63-22-63-63 0-40 23-62 63-62s62 22 62 62c0 41-22 63-62 63zM547-70c0 24 0 49 6 70H119v-70h172v-430l-117-7v-63h199l-1 500h175" id="aj"/><path fill="#333" d="M484-570h91c-6 20-6 44-6 66V0c0 109-94 180-239 180-105 0-205-37-247-92l51-62c43 50 112 77 199 77 100 0 151-35 151-103v-120c-53 42-114 65-171 65C159-55 52-167 52-328c0-157 102-258 261-258 75 0 130 28 171 86v-70zM313-136c75 0 139-36 171-96v-168c-37-72-99-113-171-113-100 0-178 81-178 185 0 107 79 192 178 192" id="ak"/><g id="c"><use transform="matrix(0.018518518518518517,0,0,0.018518518518518517,0,0)" xlink:href="#ag"/><use transform="matrix(0.018518518518518517,0,0,0.018518518518518517,12.222222222222221,0)" xlink:href="#ah"/><use transform="matrix(0.018518518518518517,0,0,0.018518518518518517,24.444444444444443,0)" xlink:href="#ai"/><use transform="matrix(0.018518518518518517,0,0,0.018518518518518517,36.666666666666664,0)" xlink:href="#ai"/><use transform="matrix(0.018518518518518517,0,0,0.018518518518518517,48.888888888888886,0)" xlink:href="#aj"/><use transform="matrix(0.018518518518518517,0,0,0.018518518518518517,61.11111111111111,0)" xlink:href="#Z"/><use transform="matrix(0.018518518518518517,0,0,0.018518518518518517,73.33333333333333,0)" xlink:href="#ak"/></g><path fill="#333" d="M582 0h-91v-43c-42 37-98 57-161 57C172 14 67-111 67-301c0-180 93-285 253-285 76 0 128 27 171 88v-288l85 6v714c0 22 0 46 6 66zM330-67c85 0 135-27 161-88v-243c-37-72-99-113-171-113-102 0-168 83-168 210 0 137 74 234 178 234" id="al"/><g id="d"><use transform="matrix(0.018518518518518517,0,0,0.018518518518518517,0,0)" xlink:href="#ab"/><use transform="matrix(0.018518518518518517,0,0,0.018518518518518517,12.222222222222221,0)" xlink:href="#Y"/><use transform="matrix(0.018518518518518517,0,0,0.018518518518518517,24.444444444444443,0)" xlink:href="#Z"/><use transform="matrix(0.018518518518518517,0,0,0.018518518518518517,36.666666666666664,0)" xlink:href="#al"/></g><path fill="#333" d="M364-326c144 27 202 72 202 158 0 107-89 183-227 183-102 0-180-41-239-120l57-58C212-98 272-61 340-61c78 0 146-49 146-106 0-38-30-56-129-76-165-33-233-85-233-174 0-101 88-169 221-169 96 0 172 33 214 93l-54 54c-47-50-89-69-151-69-87 0-150 37-150 89 0 46 50 72 160 93" id="am"/><g id="e"><use transform="matrix(0.018518518518518517,0,0,0.018518518518518517,0,0)" xlink:href="#ag"/><use transform="matrix(0.018518518518518517,0,0,0.018518518518518517,12.222222222222221,0)" xlink:href="#Y"/><use transform="matrix(0.018518518518518517,0,0,0.018518518518518517,24.444444444444443,0)" xlink:href="#am"/><use transform="matrix(0.018518518518518517,0,0,0.018518518518518517,36.666666666666664,0)" xlink:href="#am"/><use transform="matrix(0.018518518518518517,0,0,0.018518518518518517,48.888888888888886,0)" xlink:href="#ah"/><use transform="matrix(0.018518518518518517,0,0,0.018518518518518517,61.11111111111111,0)" xlink:href="#ak"/><use transform="matrix(0.018518518518518517,0,0,0.018518518518518517,73.33333333333333,0)" xlink:href="#Y"/></g><path fill="#333" d="M605-391c0 235-84 378-230 402v134h-90V12C137-11 55-152 55-391c0-261 97-405 274-405 173 0 276 152 276 405zM375-71c90-23 133-120 133-320 0-238-56-334-179-333-115 1-174 104-174 333 0 197 43 297 130 320v-194h90v194" id="an"/><g id="f"><use transform="matrix(0.018518518518518517,0,0,0.018518518518518517,0,0)" xlink:href="#an"/><use transform="matrix(0.018518518518518517,0,0,0.018518518518518517,12.222222222222221,0)" xlink:href="#ad"/><use transform="matrix(0.018518518518518517,0,0,0.018518518518518517,24.444444444444443,0)" xlink:href="#Y"/><use transform="matrix(0.018518518518518517,0,0,0.018518518518518517,36.666666666666664,0)" xlink:href="#ad"/><use transform="matrix(0.018518518518518517,0,0,0.018518518518518517,48.888888888888886,0)" xlink:href="#Y"/></g><path fill="#333" d="M517 0l-63-220H203L143 0H58l205-780h119L602 0h-85zM221-290h213L331-647h-13" id="ao"/><g id="g"><use transform="matrix(0.018518518518518517,0,0,0.018518518518518517,0,0)" xlink:href="#ao"/><use transform="matrix(0.018518518518518517,0,0,0.018518518518518517,12.222222222222221,0)" xlink:href="#af"/><use transform="matrix(0.018518518518518517,0,0,0.018518518518518517,24.444444444444443,0)" xlink:href="#aa"/><use transform="matrix(0.018518518518518517,0,0,0.018518518518518517,36.666666666666664,0)" xlink:href="#ac"/><use transform="matrix(0.018518518518518517,0,0,0.018518518518518517,48.888888888888886,0)" xlink:href="#ae"/></g><path fill="#333" d="M494-209c0 101-68 154-161 154-96 0-167-53-167-154v-571H81v571C81-75 167 15 333 15c162 0 246-90 246-224v-571h-85v571" id="ap"/><g id="h"><use transform="matrix(0.018518518518518517,0,0,0.018518518518518517,0,0)" xlink:href="#ap"/><use transform="matrix(0.018518518518518517,0,0,0.018518518518518517,12.222222222222221,0)" xlink:href="#ai"/><use transform="matrix(0.018518518518518517,0,0,0.018518518518518517,24.444444444444443,0)" xlink:href="#al"/><use transform="matrix(0.018518518518518517,0,0,0.018518518518518517,36.666666666666664,0)" xlink:href="#ah"/><use transform="matrix(0.018518518518518517,0,0,0.018518518518518517,48.888888888888886,0)" xlink:href="#aa"/><use transform="matrix(0.018518518518518517,0,0,0.018518518518518517,61.11111111111111,0)" xlink:href="#Y"/></g><path fill="#333" d="M473-586c101 0 124 76 124 177V0h-81v-430c0-44-23-81-66-81-26 0-48 21-74 81 2 141 0 287 1 430h-81v-420c0-44-23-81-66-81-31 0-49 24-73 73v362c0 22 0 46 6 66H72v-570h85v51c23-49 48-67 96-67 55 0 91 36 109 90 18-62 46-90 111-90" id="aq"/><path fill="#333" d="M541-70c0 24 0 49 6 70H113v-70l336-430H126v-70h411v70L202-70h339" id="ar"/><g id="i"><use transform="matrix(0.018518518518518517,0,0,0.018518518518518517,0,0)" xlink:href="#ao"/><use transform="matrix(0.018518518518518517,0,0,0.018518518518518517,12.222222222222221,0)" xlink:href="#aq"/><use transform="matrix(0.018518518518518517,0,0,0.018518518518518517,24.444444444444443,0)" xlink:href="#ah"/><use transform="matrix(0.018518518518518517,0,0,0.018518518518518517,36.666666666666664,0)" xlink:href="#ar"/><use transform="matrix(0.018518518518518517,0,0,0.018518518518518517,48.888888888888886,0)" xlink:href="#ac"/><use transform="matrix(0.018518518518518517,0,0,0.018518518518518517,61.11111111111111,0)" xlink:href="#Z"/></g><path fill="#333" d="M270-780H85V0h255c163 0 245-131 245-393 0-278-88-387-315-387zm70 695H170v-606h150c124 0 182 92 182 298 0 201-56 308-162 308" id="as"/><path fill="#333" d="M475-570h95C539-443 420-138 330 81c-43 104-108 146-211 128l14-66c96 28 130-101 158-173-72-190-185-409-206-540h84c17 107 96 273 164 433 65-170 126-348 142-433" id="at"/><path fill="#333" d="M432-440c90 32 138 102 138 202C570-94 473 0 325 0H90v-780h175c164 0 245 61 245 195 0 73-23 119-78 145zM265-695h-90v227h90c119 0 164-36 164-117 0-80-50-110-164-110zm60 610c105 0 164-55 164-153 0-96-59-145-174-145H175v298h150" id="au"/><g id="j"><use transform="matrix(0.018518518518518517,0,0,0.018518518518518517,0,0)" xlink:href="#as"/><use transform="matrix(0.018518518518518517,0,0,0.018518518518518517,12.222222222222221,0)" xlink:href="#at"/><use transform="matrix(0.018518518518518517,0,0,0.018518518518518517,24.444444444444443,0)" xlink:href="#Z"/><use transform="matrix(0.018518518518518517,0,0,0.018518518518518517,36.666666666666664,0)" xlink:href="#ah"/><use transform="matrix(0.018518518518518517,0,0,0.018518518518518517,48.888888888888886,0)" xlink:href="#aq"/><use transform="matrix(0.018518518518518517,0,0,0.018518518518518517,61.11111111111111,0)" xlink:href="#ac"/><use transform="matrix(0.018518518518518517,0,0,0.018518518518518517,73.33333333333333,0)" xlink:href="#as"/><use transform="matrix(0.018518518518518517,0,0,0.018518518518518517,85.55555555555556,0)" xlink:href="#au"/></g><g id="k"><use transform="matrix(0.018518518518518517,0,0,0.018518518518518517,0,0)" xlink:href="#as"/><use transform="matrix(0.018518518518518517,0,0,0.018518518518518517,12.222222222222221,0)" xlink:href="#Y"/><use transform="matrix(0.018518518518518517,0,0,0.018518518518518517,24.444444444444443,0)" xlink:href="#ah"/><use transform="matrix(0.018518518518518517,0,0,0.018518518518518517,36.666666666666664,0)" xlink:href="#al"/></g><path fill="#333" d="M555 0H107v-780h85v710h363V0" id="av"/><g id="l"><use transform="matrix(0.018518518518518517,0,0,0.018518518518518517,0,0)" xlink:href="#av"/><use transform="matrix(0.018518518518518517,0,0,0.018518518518518517,12.222222222222221,0)" xlink:href="#Y"/><use transform="matrix(0.018518518518518517,0,0,0.018518518518518517,24.444444444444443,0)" xlink:href="#aa"/><use transform="matrix(0.018518518518518517,0,0,0.018518518518518517,36.666666666666664,0)" xlink:href="#aa"/><use transform="matrix(0.018518518518518517,0,0,0.018518518518518517,48.888888888888886,0)" xlink:href="#Y"/><use transform="matrix(0.018518518518518517,0,0,0.018518518518518517,61.11111111111111,0)" xlink:href="#ae"/></g><g id="m"><use transform="matrix(0.018518518518518517,0,0,0.018518518518518517,0,0)" xlink:href="#an"/><use transform="matrix(0.018518518518518517,0,0,0.018518518518518517,12.222222222222221,0)" xlink:href="#ad"/><use transform="matrix(0.018518518518518517,0,0,0.018518518518518517,24.444444444444443,0)" xlink:href="#Y"/><use transform="matrix(0.018518518518518517,0,0,0.018518518518518517,36.666666666666664,0)" xlink:href="#ad"/><use transform="matrix(0.018518518518518517,0,0,0.018518518518518517,48.888888888888886,0)" xlink:href="#Y"/></g><g id="n"><use transform="matrix(0.018518518518518517,0,0,0.018518518518518517,0,0)" xlink:href="#ao"/><use transform="matrix(0.018518518518518517,0,0,0.018518518518518517,12.222222222222221,0)" xlink:href="#aq"/><use transform="matrix(0.018518518518518517,0,0,0.018518518518518517,24.444444444444443,0)" xlink:href="#ah"/><use transform="matrix(0.018518518518518517,0,0,0.018518518518518517,36.666666666666664,0)" xlink:href="#ar"/><use transform="matrix(0.018518518518518517,0,0,0.018518518518518517,48.888888888888886,0)" xlink:href="#ac"/><use transform="matrix(0.018518518518518517,0,0,0.018518518518518517,61.11111111111111,0)" xlink:href="#Z"/></g><path fill="#333" d="M543-70c0 24 0 49 6 70H115v-70h173v-640l-117-7v-63h202v710h170" id="aw"/><g id="o"><use transform="matrix(0.018518518518518517,0,0,0.018518518518518517,0,0)" xlink:href="#ab"/><use transform="matrix(0.018518518518518517,0,0,0.018518518518518517,12.222222222222221,0)" xlink:href="#aj"/><use transform="matrix(0.018518518518518517,0,0,0.018518518518518517,24.444444444444443,0)" xlink:href="#aq"/><use transform="matrix(0.018518518518518517,0,0,0.018518518518518517,36.666666666666664,0)" xlink:href="#ai"/><use transform="matrix(0.018518518518518517,0,0,0.018518518518518517,48.888888888888886,0)" xlink:href="#aw"/><use transform="matrix(0.018518518518518517,0,0,0.018518518518518517,61.11111111111111,0)" xlink:href="#Y"/></g><g id="p"><use transform="matrix(0.018518518518518517,0,0,0.018518518518518517,0,0)" xlink:href="#an"/><use transform="matrix(0.018518518518518517,0,0,0.018518518518518517,12.222222222222221,0)" xlink:href="#ad"/><use transform="matrix(0.018518518518518517,0,0,0.018518518518518517,24.444444444444443,0)" xlink:href="#Y"/><use transform="matrix(0.018518518518518517,0,0,0.018518518518518517,36.666666666666664,0)" xlink:href="#ad"/><use transform="matrix(0.018518518518518517,0,0,0.018518518518518517,48.888888888888886,0)" xlink:href="#Y"/></g><g id="q"><use transform="matrix(0.018518518518518517,0,0,0.018518518518518517,0,0)" xlink:href="#ab"/><use transform="matrix(0.018518518518518517,0,0,0.018518518518518517,12.222222222222221,0)" xlink:href="#Y"/><use transform="matrix(0.018518518518518517,0,0,0.018518518518518517,24.444444444444443,0)" xlink:href="#ae"/><use transform="matrix(0.018518518518518517,0,0,0.018518518518518517,36.666666666666664,0)" xlink:href="#X"/><use transform="matrix(0.018518518518518517,0,0,0.018518518518518517,48.888888888888886,0)" xlink:href="#aj"/><use transform="matrix(0.018518518518518517,0,0,0.018518518518518517,61.11111111111111,0)" xlink:href="#af"/><use transform="matrix(0.018518518518518517,0,0,0.018518518518518517,73.33333333333333,0)" xlink:href="#Y"/></g><path fill="#333" d="M529-780h85c0 207-47 590-100 780h-81c-40-106-88-242-108-348-22 106-73 242-115 348h-81C82-190 48-573 45-780h85c0 164 15 497 52 641 39-104 79-217 100-321h86c19 104 63 217 100 321 40-144 61-477 61-641" id="ax"/><g id="r"><use transform="matrix(0.018518518518518517,0,0,0.018518518518518517,0,0)" xlink:href="#ao"/><use transform="matrix(0.018518518518518517,0,0,0.018518518518518517,12.222222222222221,0)" xlink:href="#ax"/><use transform="matrix(0.018518518518518517,0,0,0.018518518518518517,24.444444444444443,0)" xlink:href="#ab"/></g><path fill="#333" d="M342-586c160 0 253 105 253 285 0 190-105 315-263 315-61 0-115-19-156-53 4 16 11 31 17 39H86v-786l85 6v282c43-61 95-88 171-88zM332-67c104 0 178-97 178-234 0-127-66-210-168-210-72 0-134 41-171 113v243c26 61 76 88 161 88" id="ay"/><g id="s"><use transform="matrix(0.018518518518518517,0,0,0.018518518518518517,0,0)" xlink:href="#av"/><use transform="matrix(0.018518518518518517,0,0,0.018518518518518517,12.222222222222221,0)" xlink:href="#ah"/><use transform="matrix(0.018518518518518517,0,0,0.018518518518518517,24.444444444444443,0)" xlink:href="#aq"/><use transform="matrix(0.018518518518518517,0,0,0.018518518518518517,36.666666666666664,0)" xlink:href="#ay"/><use transform="matrix(0.018518518518518517,0,0,0.018518518518518517,48.888888888888886,0)" xlink:href="#al"/><use transform="matrix(0.018518518518518517,0,0,0.018518518518518517,61.11111111111111,0)" xlink:href="#ah"/></g><path fill="#333" d="M473-616c0-65-48-105-135-105-66 0-123 23-171 98l-59-40c45-91 121-135 224-135 133 0 225 74 225 181 0 170-214 358-361 537h395V0H80v-80c147-179 393-375 393-536" id="az"/><path fill="#333" d="M329-796c156 0 271 172 271 415 0 224-113 396-271 396C172 15 60-156 60-381c0-245 113-415 269-415zm0 64c-101 1-169 138-169 351 0 73 10 137 28 189l250-472c-29-44-66-68-109-68zm0 672c106 0 174-132 174-321 0-79-10-147-28-202L231-111c27 33 60 51 98 51" id="aA"/><g id="t"><use transform="matrix(0.014814814814814815,0,0,0.014814814814814815,0,0)" xlink:href="#az"/><use transform="matrix(0.014814814814814815,0,0,0.014814814814814815,9.777777777777779,0)" xlink:href="#aA"/><use transform="matrix(0.014814814814814815,0,0,0.014814814814814815,19.555555555555557,0)" xlink:href="#aA"/></g><path fill="#333" d="M329 15C154 15 55-129 55-391c0-261 97-405 274-405 173 0 276 152 276 405 0 259-102 406-276 406zm0-81c122 0 179-94 179-325 0-238-56-334-179-333-115 1-174 104-174 333 0 228 57 325 174 325" id="aB"/><path fill="#333" d="M619 0H492L207-308l-32 40V0H90v-781l85 1v368l302-368 113-1-325 401" id="aC"/><g id="u"><use transform="matrix(0.014814814814814815,0,0,0.014814814814814815,0,0)" xlink:href="#aB"/><use transform="matrix(0.014814814814814815,0,0,0.014814814814814815,9.777777777777779,0)" xlink:href="#aC"/></g><path fill="#333" d="M551-299v80H442V0h-85v-219H90v-80l251-481h90L180-299h177v-143h91c-11 43-4 93-6 143h109" id="aD"/><g id="v"><use transform="matrix(0.014814814814814815,0,0,0.014814814814814815,0,0)" xlink:href="#aD"/><use transform="matrix(0.014814814814814815,0,0,0.014814814814814815,9.777777777777779,0)" xlink:href="#aA"/><use transform="matrix(0.014814814814814815,0,0,0.014814814814814815,19.555555555555557,0)" xlink:href="#aA"/></g><path fill="#333" d="M584-780H76v70h208V0h85v-710h215v-70" id="aE"/><path fill="#333" d="M564-297c0 99-7 207 6 297h-97v-318c0-101-58-183-159-183-69 0-105 39-130 89V0H99v-786l85 6v277c27-50 102-83 172-83 148 0 208 147 208 289" id="aF"/><path fill="#333" d="M562 0h-91L331-220 190 0H99l188-290-178-280h90l133 209 135-209h90L377-290" id="aG"/><g id="w"><use transform="matrix(0.014814814814814815,0,0,0.014814814814814815,0,0)" xlink:href="#aE"/><use transform="matrix(0.014814814814814815,0,0,0.014814814814814815,9.777777777777779,0)" xlink:href="#aF"/><use transform="matrix(0.014814814814814815,0,0,0.014814814814814815,19.555555555555557,0)" xlink:href="#ae"/><use transform="matrix(0.014814814814814815,0,0,0.014814814814814815,29.333333333333336,0)" xlink:href="#ac"/><use transform="matrix(0.014814814814814815,0,0,0.014814814814814815,39.111111111111114,0)" xlink:href="#aa"/><use transform="matrix(0.014814814814814815,0,0,0.014814814814814815,48.88888888888889,0)" xlink:href="#aa"/><use transform="matrix(0.014814814814814815,0,0,0.014814814814814815,58.66666666666667,0)" xlink:href="#aw"/><use transform="matrix(0.014814814814814815,0,0,0.014814814814814815,68.44444444444446,0)" xlink:href="#Y"/><use transform="matrix(0.014814814814814815,0,0,0.014814814814814815,78.22222222222223,0)" xlink:href="#W"/><use transform="matrix(0.014814814814814815,0,0,0.014814814814814815,88,0)" xlink:href="#aG"/><use transform="matrix(0.014814814814814815,0,0,0.014814814814814815,97.77777777777777,0)" xlink:href="#af"/><use transform="matrix(0.014814814814814815,0,0,0.014814814814814815,107.55555555555554,0)" xlink:href="#Y"/><use transform="matrix(0.014814814814814815,0,0,0.014814814814814815,117.33333333333331,0)" xlink:href="#ai"/><use transform="matrix(0.014814814814814815,0,0,0.014814814814814815,127.11111111111109,0)" xlink:href="#aa"/><use transform="matrix(0.014814814814814815,0,0,0.014814814814814815,136.88888888888886,0)" xlink:href="#aj"/><use transform="matrix(0.014814814814814815,0,0,0.014814814814814815,146.66666666666663,0)" xlink:href="#ac"/><use transform="matrix(0.014814814814814815,0,0,0.014814814814814815,156.4444444444444,0)" xlink:href="#Z"/></g><g id="x"><use transform="matrix(0.014814814814814815,0,0,0.014814814814814815,0,0)" xlink:href="#az"/><use transform="matrix(0.014814814814814815,0,0,0.014814814814814815,9.777777777777779,0)" xlink:href="#aA"/><use transform="matrix(0.014814814814814815,0,0,0.014814814814814815,19.555555555555557,0)" xlink:href="#aA"/></g><g id="y"><use transform="matrix(0.014814814814814815,0,0,0.014814814814814815,0,0)" xlink:href="#aB"/><use transform="matrix(0.014814814814814815,0,0,0.014814814814814815,9.777777777777779,0)" xlink:href="#aC"/></g><g id="z"><use transform="matrix(0.014814814814814815,0,0,0.014814814814814815,0,0)" xlink:href="#az"/><use transform="matrix(0.014814814814814815,0,0,0.014814814814814815,9.777777777777779,0)" xlink:href="#aA"/><use transform="matrix(0.014814814814814815,0,0,0.014814814814814815,19.555555555555557,0)" xlink:href="#aA"/></g><g id="A"><use transform="matrix(0.014814814814814815,0,0,0.014814814814814815,0,0)" xlink:href="#aB"/><use transform="matrix(0.014814814814814815,0,0,0.014814814814814815,9.777777777777779,0)" xlink:href="#aC"/></g><g id="B"><use transform="matrix(0.014814814814814815,0,0,0.014814814814814815,0,0)" xlink:href="#aD"/><use transform="matrix(0.014814814814814815,0,0,0.014814814814814815,9.777777777777779,0)" xlink:href="#aA"/><use transform="matrix(0.014814814814814815,0,0,0.014814814814814815,19.555555555555557,0)" xlink:href="#aA"/></g><g id="C"><use transform="matrix(0.014814814814814815,0,0,0.014814814814814815,0,0)" xlink:href="#aE"/><use transform="matrix(0.014814814814814815,0,0,0.014814814814814815,9.777777777777779,0)" xlink:href="#aF"/><use transform="matrix(0.014814814814814815,0,0,0.014814814814814815,19.555555555555557,0)" xlink:href="#ae"/><use transform="matrix(0.014814814814814815,0,0,0.014814814814814815,29.333333333333336,0)" xlink:href="#ac"/><use transform="matrix(0.014814814814814815,0,0,0.014814814814814815,39.111111111111114,0)" xlink:href="#aa"/><use transform="matrix(0.014814814814814815,0,0,0.014814814814814815,48.88888888888889,0)" xlink:href="#aa"/><use transform="matrix(0.014814814814814815,0,0,0.014814814814814815,58.66666666666667,0)" xlink:href="#aw"/><use transform="matrix(0.014814814814814815,0,0,0.014814814814814815,68.44444444444446,0)" xlink:href="#Y"/><use transform="matrix(0.014814814814814815,0,0,0.014814814814814815,78.22222222222223,0)" xlink:href="#W"/><use transform="matrix(0.014814814814814815,0,0,0.014814814814814815,88,0)" xlink:href="#aG"/><use transform="matrix(0.014814814814814815,0,0,0.014814814814814815,97.77777777777777,0)" xlink:href="#af"/><use transform="matrix(0.014814814814814815,0,0,0.014814814814814815,107.55555555555554,0)" xlink:href="#Y"/><use transform="matrix(0.014814814814814815,0,0,0.014814814814814815,117.33333333333331,0)" xlink:href="#ai"/><use transform="matrix(0.014814814814814815,0,0,0.014814814814814815,127.11111111111109,0)" xlink:href="#aa"/><use transform="matrix(0.014814814814814815,0,0,0.014814814814814815,136.88888888888886,0)" xlink:href="#aj"/><use transform="matrix(0.014814814814814815,0,0,0.014814814814814815,146.66666666666663,0)" xlink:href="#ac"/><use transform="matrix(0.014814814814814815,0,0,0.014814814814814815,156.4444444444444,0)" xlink:href="#Z"/></g><path fill="#333" d="M586 0H486c0-53-98-198-166-314-45 3-97 2-145 2V0H90v-780h235c148 0 245 94 245 238 0 118-59 183-158 212C479-211 586-56 586 0zM175-397h140c115 0 174-49 174-145 0-98-59-153-164-153H175v298" id="aH"/><path fill="#333" d="M501-179l97 13C579-69 454 15 329 15 154 15 52-140 52-377c0-245 115-419 277-419 107 0 218 76 246 168l-94 27c-19-65-85-115-152-115-111 0-182 133-182 339 0 200 66 312 182 312 80 0 161-54 172-114" id="aI"/><g id="D"><use transform="matrix(0.014814814814814815,0,0,0.014814814814814815,0,0)" xlink:href="#aq"/><use transform="matrix(0.014814814814814815,0,0,0.014814814814814815,9.777777777777779,0)" xlink:href="#ah"/><use transform="matrix(0.014814814814814815,0,0,0.014814814814814815,19.555555555555557,0)" xlink:href="#aG"/><use transform="matrix(0.014814814814814815,0,0,0.014814814814814815,29.333333333333336,0)" xlink:href="#aH"/><use transform="matrix(0.014814814814814815,0,0,0.014814814814814815,39.111111111111114,0)" xlink:href="#Y"/><use transform="matrix(0.014814814814814815,0,0,0.014814814814814815,48.88888888888889,0)" xlink:href="#aa"/><use transform="matrix(0.014814814814814815,0,0,0.014814814814814815,58.66666666666667,0)" xlink:href="#ae"/><use transform="matrix(0.014814814814814815,0,0,0.014814814814814815,68.44444444444446,0)" xlink:href="#at"/><use transform="matrix(0.014814814814814815,0,0,0.014814814814814815,78.22222222222223,0)" xlink:href="#aI"/><use transform="matrix(0.014814814814814815,0,0,0.014814814814814815,88,0)" xlink:href="#ac"/><use transform="matrix(0.014814814814814815,0,0,0.014814814814814815,97.77777777777777,0)" xlink:href="#ad"/><use transform="matrix(0.014814814814814815,0,0,0.014814814814814815,107.55555555555554,0)" xlink:href="#Z"/><use transform="matrix(0.014814814814814815,0,0,0.014814814814814815,117.33333333333331,0)" xlink:href="#aa"/></g><g id="E"><use transform="matrix(0.014814814814814815,0,0,0.014814814814814815,0,0)" xlink:href="#Y"/><use transform="matrix(0.014814814814814815,0,0,0.014814814814814815,9.777777777777779,0)" xlink:href="#aG"/><use transform="matrix(0.014814814814814815,0,0,0.014814814814814815,19.555555555555557,0)" xlink:href="#af"/><use transform="matrix(0.014814814814814815,0,0,0.014814814814814815,29.333333333333336,0)" xlink:href="#Y"/><use transform="matrix(0.014814814814814815,0,0,0.014814814814814815,39.111111111111114,0)" xlink:href="#Y"/><use transform="matrix(0.014814814814814815,0,0,0.014814814814814815,48.88888888888889,0)" xlink:href="#al"/><use transform="matrix(0.014814814814814815,0,0,0.014814814814814815,58.66666666666667,0)" xlink:href="#Y"/><use transform="matrix(0.014814814814814815,0,0,0.014814814814814815,68.44444444444446,0)" xlink:href="#al"/></g><g id="F"><use transform="matrix(0.018518518518518517,0,0,0.018518518518518517,0,0)" xlink:href="#aH"/><use transform="matrix(0.018518518518518517,0,0,0.018518518518518517,12.222222222222221,0)" xlink:href="#Y"/><use transform="matrix(0.018518518518518517,0,0,0.018518518518518517,24.444444444444443,0)" xlink:href="#af"/><use transform="matrix(0.018518518518518517,0,0,0.018518518518518517,36.666666666666664,0)" xlink:href="#Y"/><use transform="matrix(0.018518518518518517,0,0,0.018518518518518517,48.888888888888886,0)" xlink:href="#aj"/><use transform="matrix(0.018518518518518517,0,0,0.018518518518518517,61.11111111111111,0)" xlink:href="#X"/><use transform="matrix(0.018518518518518517,0,0,0.018518518518518517,73.33333333333333,0)" xlink:href="#Y"/></g><g id="G"><use transform="matrix(0.018518518518518517,0,0,0.018518518518518517,0,0)" xlink:href="#af"/><use transform="matrix(0.018518518518518517,0,0,0.018518518518518517,12.222222222222221,0)" xlink:href="#ac"/><use transform="matrix(0.018518518518518517,0,0,0.018518518518518517,24.444444444444443,0)" xlink:href="#ad"/><use transform="matrix(0.018518518518518517,0,0,0.018518518518518517,36.666666666666664,0)" xlink:href="#Z"/><use transform="matrix(0.018518518518518517,0,0,0.018518518518518517,48.888888888888886,0)" xlink:href="#aa"/></g><path fill="#333" d="M526-349v80H368v156h-80v-156H133v-80h155v-156h80v156h158" id="aJ"/><path fill="#333" d="M525-372H128l6-80h397zm0 207H128l6-80h397" id="aK"/><g id="H"><use transform="matrix(0.018518518518518517,0,0,0.018518518518518517,0,0)" xlink:href="#aJ"/><use transform="matrix(0.018518518518518517,0,0,0.018518518518518517,12.222222222222221,0)" xlink:href="#aK"/></g><path fill="#333" d="M555-70c0 24 0 49 6 70H127v-70h173v-580c-30 41-97 71-181 80l-9-84c84-19 152-64 190-126h85v710h170" id="aL"/><use transform="matrix(0.018518518518518517,0,0,0.018518518518518517,0,0)" xlink:href="#aL" id="I"/><g id="J"><use transform="matrix(0.018518518518518517,0,0,0.018518518518518517,0,0)" xlink:href="#as"/><use transform="matrix(0.018518518518518517,0,0,0.018518518518518517,12.222222222222221,0)" xlink:href="#Y"/><use transform="matrix(0.018518518518518517,0,0,0.018518518518518517,24.444444444444443,0)" xlink:href="#aw"/><use transform="matrix(0.018518518518518517,0,0,0.018518518518518517,36.666666666666664,0)" xlink:href="#Y"/><use transform="matrix(0.018518518518518517,0,0,0.018518518518518517,48.888888888888886,0)" xlink:href="#aa"/><use transform="matrix(0.018518518518518517,0,0,0.018518518518518517,61.11111111111111,0)" xlink:href="#Y"/></g><g id="K"><use transform="matrix(0.018518518518518517,0,0,0.018518518518518517,0,0)" xlink:href="#aq"/><use transform="matrix(0.018518518518518517,0,0,0.018518518518518517,12.222222222222221,0)" xlink:href="#am"/><use transform="matrix(0.018518518518518517,0,0,0.018518518518518517,24.444444444444443,0)" xlink:href="#ak"/></g><g id="L"><use transform="matrix(0.018518518518518517,0,0,0.018518518518518517,0,0)" xlink:href="#ac"/><use transform="matrix(0.018518518518518517,0,0,0.018518518518518517,12.222222222222221,0)" xlink:href="#Z"/></g><path fill="#333" d="M541-629c-50-122-231-113-231 43v265h226v77H310v450l-85-6v-444H116v-77h109v-265c6-244 306-283 392-77" id="aM"/><g id="M"><use transform="matrix(0.018518518518518517,0,0,0.018518518518518517,0,0)" xlink:href="#aM"/><use transform="matrix(0.018518518518518517,0,0,0.018518518518518517,12.222222222222221,0)" xlink:href="#ad"/><use transform="matrix(0.018518518518518517,0,0,0.018518518518518517,24.444444444444443,0)" xlink:href="#Z"/><use transform="matrix(0.018518518518518517,0,0,0.018518518518518517,36.666666666666664,0)" xlink:href="#af"/></g><g id="N"><use transform="matrix(0.018518518518518517,0,0,0.018518518518518517,0,0)" xlink:href="#am"/><use transform="matrix(0.018518518518518517,0,0,0.018518518518518517,12.222222222222221,0)" xlink:href="#ad"/><use transform="matrix(0.018518518518518517,0,0,0.018518518518518517,24.444444444444443,0)" xlink:href="#af"/><use transform="matrix(0.018518518518518517,0,0,0.018518518518518517,36.666666666666664,0)" xlink:href="#af"/><use transform="matrix(0.018518518518518517,0,0,0.018518518518518517,48.888888888888886,0)" xlink:href="#Y"/><use transform="matrix(0.018518518518518517,0,0,0.018518518518518517,61.11111111111111,0)" xlink:href="#am"/><use transform="matrix(0.018518518518518517,0,0,0.018518518518518517,73.33333333333333,0)" xlink:href="#am"/></g><g id="O"><use transform="matrix(0.018518518518518517,0,0,0.018518518518518517,0,0)" xlink:href="#aH"/><use transform="matrix(0.018518518518518517,0,0,0.018518518518518517,12.222222222222221,0)" xlink:href="#Y"/><use transform="matrix(0.018518518518518517,0,0,0.018518518518518517,24.444444444444443,0)" xlink:href="#aa"/><use transform="matrix(0.018518518518518517,0,0,0.018518518518518517,36.666666666666664,0)" xlink:href="#ad"/><use transform="matrix(0.018518518518518517,0,0,0.018518518518518517,48.888888888888886,0)" xlink:href="#ae"/><use transform="matrix(0.018518518518518517,0,0,0.018518518518518517,61.11111111111111,0)" xlink:href="#Z"/></g><g id="P"><use transform="matrix(0.018518518518518517,0,0,0.018518518518518517,0,0)" xlink:href="#aa"/><use transform="matrix(0.018518518518518517,0,0,0.018518518518518517,12.222222222222221,0)" xlink:href="#ac"/></g><path fill="#333" d="M493-570h91c-6 20-6 44-6 66v704l-85 6V-43c-42 37-98 57-161 57C174 14 69-111 69-301c0-180 93-285 253-285 76 0 128 27 171 88v-72zm0 415v-243c-37-72-99-113-171-113-102 0-168 83-168 210 0 137 74 234 178 234 85 0 135-27 161-88" id="aN"/><g id="Q"><use transform="matrix(0.018518518518518517,0,0,0.018518518518518517,0,0)" xlink:href="#aN"/><use transform="matrix(0.018518518518518517,0,0,0.018518518518518517,12.222222222222221,0)" xlink:href="#ad"/><use transform="matrix(0.018518518518518517,0,0,0.018518518518518517,24.444444444444443,0)" xlink:href="#Y"/><use transform="matrix(0.018518518518518517,0,0,0.018518518518518517,36.666666666666664,0)" xlink:href="#ad"/><use transform="matrix(0.018518518518518517,0,0,0.018518518518518517,48.888888888888886,0)" xlink:href="#Y"/></g><g id="R"><use transform="matrix(0.018518518518518517,0,0,0.018518518518518517,0,0)" xlink:href="#ac"/><use transform="matrix(0.018518518518518517,0,0,0.018518518518518517,12.222222222222221,0)" xlink:href="#Z"/></g><g id="S"><use transform="matrix(0.018518518518518517,0,0,0.018518518518518517,0,0)" xlink:href="#aM"/><use transform="matrix(0.018518518518518517,0,0,0.018518518518518517,12.222222222222221,0)" xlink:href="#ad"/><use transform="matrix(0.018518518518518517,0,0,0.018518518518518517,24.444444444444443,0)" xlink:href="#Z"/><use transform="matrix(0.018518518518518517,0,0,0.018518518518518517,36.666666666666664,0)" xlink:href="#af"/></g><g id="T"><use transform="matrix(0.018518518518518517,0,0,0.018518518518518517,0,0)" xlink:href="#Y"/><use transform="matrix(0.018518518518518517,0,0,0.018518518518518517,12.222222222222221,0)" xlink:href="#ae"/><use transform="matrix(0.018518518518518517,0,0,0.018518518518518517,24.444444444444443,0)" xlink:href="#ae"/><use transform="matrix(0.018518518518518517,0,0,0.018518518518518517,36.666666666666664,0)" xlink:href="#ac"/><use transform="matrix(0.018518518518518517,0,0,0.018518518518518517,48.888888888888886,0)" xlink:href="#ae"/></g><g id="U"><use transform="matrix(0.018518518518518517,0,0,0.018518518518518517,0,0)" xlink:href="#aI"/><use transform="matrix(0.018518518518518517,0,0,0.018518518518518517,12.222222222222221,0)" xlink:href="#ac"/><use transform="matrix(0.018518518518518517,0,0,0.018518518518518517,24.444444444444443,0)" xlink:href="#Z"/><use transform="matrix(0.018518518518518517,0,0,0.018518518518518517,36.666666666666664,0)" xlink:href="#am"/><use transform="matrix(0.018518518518518517,0,0,0.018518518518518517,48.888888888888886,0)" xlink:href="#ad"/><use transform="matrix(0.018518518518518517,0,0,0.018518518518518517,61.11111111111111,0)" xlink:href="#aq"/><use transform="matrix(0.018518518518518517,0,0,0.018518518518518517,73.33333333333333,0)" xlink:href="#Y"/></g><g id="V"><use transform="matrix(0.044444444444444446,0,0,0.044444444444444446,0,0)" xlink:href="#aB"/><use transform="matrix(0.044444444444444446,0,0,0.044444444444444446,29.333333333333336,0)" xlink:href="#aH"/></g></defs></g></svg>